<?xml version="1.0" encoding="utf-8"?>
<!-- Generator: Adobe Illustrator 23.0.3, SVG Export Plug-In . SVG Version: 6.00 Build 0)  -->
<svg version="1.1" id="Capa_1" xmlns="http://www.w3.org/2000/svg" xmlns:xlink="http://www.w3.org/1999/xlink" x="0px" y="0px"
	 viewBox="0 0 841.9 244.3" style="enable-background:new 0 0 841.9 244.3;" xml:space="preserve">
<style type="text/css">
	.st0{fill:#000100;}
	.st1{fill:#1D1D1B;}
</style>
<g id="Marks__x28_no_editing_x29_">
</g>
<g id="Logotype__x28_no_editing_x29_">
	<g>
		<polygon class="st0" points="179.5,16.4 123,16.4 10.6,129 10.6,174.6 123,174.6 123,230.8 179.5,230.8 179.5,129 66.8,129 		"/>
		<polygon class="st0" points="203.5,72.8 259.7,16.4 203.5,16.4 		"/>
		<polygon class="st0" points="316.1,72.8 316.1,16.4 259.7,16.4 259.7,72.8 203.5,129 203.5,185.3 259.7,185.3 259.7,129 		"/>
		<polygon class="st0" points="316.1,129 259.7,185.3 316.1,185.3 		"/>
	</g>
	<rect x="370.4" y="129.3" class="st1" width="4.4" height="56"/>
</g>
<g id="Campus_name">
	<g>
		<path d="M395.7,170.6l8.4-29.6h5.6l5.1,17.8l9.6-17.8h5.8l1.1,29.6h-6.9l-0.2-17.8l-9.6,17.8h-2.7l-5.1-17.8l-4.4,17.8H395.7z"/>
		<path d="M454.6,165h-11.1l-2.9,5.6h-7.3l15.6-29.6h6.2l8,29.6h-7.1L454.6,165z M453.5,159.7l-2.4-10.4l-4.9,10.4H453.5z"/>
		<path d="M478.8,140.8c3.1,0,8,0.4,11.3,3.8c2,2,3.6,5.1,3.6,9.8c0,6.9-3.1,10.4-4.7,12c-3.3,3.3-8,4-13.6,4h-9.1l3.6-29.6H478.8z
			 M473.9,164.8h2c2,0,5.1-0.2,7.6-2.2c1.8-1.6,2.9-4.2,2.9-7.8c0-2.7-0.9-4.7-2.2-6c-1.3-1.3-3.8-2-6.2-2h-2L473.9,164.8z"/>
		<path d="M509.7,140.8c2.9,0,5.6,0.2,7.8,2.7c1.1,1.1,2.2,2.9,2.2,6c0,2.9-0.9,5.1-2.4,6.4c-1.3,1.3-3.1,2-4.7,2.4l7.6,12h-8
			l-7.1-11.8l-1.3,11.8h-6.9l3.6-29.6L509.7,140.8L509.7,140.8z M505.7,154.4h1.8c1.1,0,2.9-0.2,4-1.1c1.1-0.9,1.6-2.2,1.6-3.6
			c0-0.9-0.2-2.2-1.3-2.9c-0.9-0.7-2.2-0.7-3.8-0.7h-1.1L505.7,154.4z"/>
		<path d="M534.4,140.8l-3.6,29.6h-6.9l3.6-29.6H534.4z"/>
		<path d="M549.7,140.8c3.1,0,8,0.4,11.3,3.8c2,2,3.6,5.1,3.6,9.8c0,6.9-3.1,10.4-4.7,12c-3.3,3.3-8,4-13.6,4h-9.1l3.6-29.6H549.7z
			 M545,164.8h2c2,0,5.1-0.2,7.6-2.2c1.8-1.6,2.9-4.2,2.9-7.8c0-2.7-0.9-4.7-2.2-6c-1.3-1.3-3.8-2-6.2-2h-2L545,164.8z"/>
	</g>
</g>
<g id="Company_name">
	<g>
		<path d="M417.3,194.8H407v6h9.3v6H407v12.9h-7.1v-31.1h17.3L417.3,194.8L417.3,194.8z"/>
		<path d="M427.9,199v11.6c0,0.9,0,2.4,1.1,3.3c0.4,0.4,1.3,0.9,2.9,0.9c1.3,0,2.2-0.4,2.9-0.9c0.9-0.9,1.1-2.2,1.1-3.3V199h6.7
			v12.2c0,2.4-0.2,4.7-2.2,6.7c-2.4,2.2-5.8,2.7-8.4,2.7c-2.7,0-6-0.4-8.4-2.7c-2-1.8-2.2-4-2.2-6.2v-12.4h6.7V199z"/>
		<path d="M447.7,199h6.7v2.4c2-2.7,4.4-3.1,6.4-3.1c1.8,0,4.2,0.2,6,2c2,2,2,4.4,2,6.2v13.1h-6.7V209c0-1.3,0-3.1-1.1-4.2
			c-0.4-0.4-1.3-0.9-2.7-0.9s-2.2,0.7-2.9,1.1c-1.1,1.1-1.3,2.7-1.3,4v10.7h-6.7V199H447.7z"/>
		<path d="M496.8,219.9h-6.7v-2.4c-1.1,1.6-2.9,3.1-6.7,3.1c-3.1,0-5.3-0.9-7.1-2.9c-2.2-2.2-3.3-5.1-3.3-8.4c0-3.6,1.3-6.2,3.3-8.2
			c1.8-1.8,4.4-2.9,7.3-2.9c2.2,0,4.9,0.7,6.4,3.1v-15.6h6.7L496.8,219.9L496.8,219.9z M481.7,205.7c-0.9,0.9-1.6,2.2-1.6,4
			c0,1.6,0.7,2.9,1.6,3.8c1.1,0.9,2.2,1.6,3.6,1.6c1.3,0,2.7-0.4,3.8-1.6c0.9-0.7,1.6-2,1.6-3.8c0-1.8-0.7-2.9-1.6-3.8
			c-1.1-1.1-2.2-1.6-3.8-1.6C483.9,204.1,482.8,204.6,481.7,205.7z"/>
		<path d="M518.4,199h6.7v20.9h-6.7v-2.4c-1.8,2.9-4.4,3.1-6.2,3.1c-2.9,0-5.6-0.7-7.8-3.1c-2.2-2.2-3.1-5.1-3.1-7.8
			c0-3.6,1.3-6.4,3.1-8.4c1.8-1.8,4.4-2.9,7.3-2.9c1.8,0,4.7,0.4,6.4,3.1V199H518.4z M509.7,205.7c-0.7,0.7-1.6,2-1.6,3.8
			s0.9,3.1,1.3,3.8c0.9,0.9,2.4,1.6,4,1.6c1.3,0,2.7-0.7,3.6-1.6c0.9-0.9,1.6-2.2,1.6-4c0-1.6-0.7-2.9-1.6-3.8
			c-1.1-0.9-2.4-1.6-3.8-1.6C511.9,204.1,510.6,204.8,509.7,205.7z"/>
		<path d="M545.9,205.7c-1.6-1.3-3.3-1.6-4.4-1.6c-2,0-3.3,1.1-3.8,1.6c-0.9,0.9-1.6,2.2-1.6,4c0,1.6,0.7,2.9,1.3,3.8
			c1.1,1.1,2.7,1.8,4,1.8c1.1,0,2.7-0.2,4.2-1.6v6c-1.8,0.9-3.6,1.3-5.3,1.3c-3.6,0-6.2-1.3-8-3.1c-1.6-1.6-3.3-4.2-3.3-8
			c0-3.6,1.6-6.4,3.6-8.2c2.2-2.2,5.1-2.9,8-2.9c1.8,0,3.6,0.2,5.3,1.1L545.9,205.7L545.9,205.7z"/>
		<path d="M554.1,186.4c2.2,0,4,1.8,4,4s-1.8,4-4,4c-2.2,0-4-1.8-4-4S551.9,186.4,554.1,186.4z M557.5,199v20.9h-6.7V199H557.5z"/>
		<path d="M583.5,217.3c-1.8,1.8-5.1,3.3-9.1,3.3s-7.3-1.6-9.1-3.3c-2-2-3.1-5.1-3.1-7.8s1.1-5.6,3.1-7.8c1.8-1.8,5.1-3.3,9.1-3.3
			s7.3,1.6,9.1,3.3c2,2,3.1,5.1,3.1,7.8S585.7,215.3,583.5,217.3z M570.6,205.7c-0.9,0.9-1.6,2.2-1.6,4c0,2,0.7,3.1,1.6,4
			c0.9,0.9,2,1.6,3.8,1.6c1.6,0,2.7-0.4,3.8-1.6c0.9-0.9,1.6-2.2,1.6-4c0-1.8-0.7-2.9-1.6-4c-0.9-0.9-2.2-1.6-3.8-1.6
			C572.8,204.1,571.7,204.6,570.6,205.7z M581.2,189.7l-7.1,6.2l-3.1-2.2l5.8-7.1L581.2,189.7z"/>
		<path d="M590.8,199h6.7v2.4c2-2.7,4.4-3.1,6.4-3.1c1.8,0,4.2,0.2,6,2c2,2,2,4.4,2,6.2v13.1h-6.7V209c0-1.3,0-3.1-1.1-4.2
			c-0.4-0.4-1.3-0.9-2.7-0.9c-1.3,0-2.2,0.7-2.9,1.1c-1.1,1.1-1.3,2.7-1.3,4v10.7h-6.7V199H590.8z"/>
		<path d="M639.9,194.8v25.1h-7.1v-25.1h-6.7v-6h20.7v6H639.9z"/>
		<path d="M668.1,210.6h-15.6c0,1.1,0.4,2.7,1.3,3.6c1.1,1.1,2.4,1.3,3.6,1.3c0.9,0,2-0.2,2.7-0.7c0,0,0.9-0.7,1.6-1.8l6.4,0.7
			c-0.9,2.9-2.9,4.4-4,5.3c-2,1.1-4.2,1.6-6.7,1.6c-3.1,0-5.8-0.7-8.2-2.9c-1.8-1.8-3.1-4.7-3.1-8c0-2.9,1.1-6,3.1-8.2
			c2.4-2.4,5.6-2.9,8-2.9s5.8,0.4,8.2,3.1c2.4,2.7,2.9,5.8,2.9,8.4v0.4H668.1z M661.9,206.6c0-0.2-0.4-1.6-1.3-2.4
			c-0.7-0.7-1.8-1.1-3.1-1.1c-1.8,0-2.7,0.7-3.3,1.3c-0.4,0.7-0.9,1.3-1.1,2.2H661.9z"/>
		<path d="M679.2,185.9v34h-6.7v-34H679.2z"/>
		<path d="M706.1,210.6h-15.6c0,1.1,0.4,2.7,1.3,3.6c1.1,1.1,2.4,1.3,3.6,1.3c0.9,0,2-0.2,2.7-0.7c0,0,0.9-0.7,1.6-1.8l6.4,0.7
			c-0.9,2.9-2.9,4.4-4,5.3c-2,1.1-4.2,1.6-6.7,1.6c-3.1,0-5.8-0.7-8.2-2.9c-1.8-1.8-3.1-4.7-3.1-8c0-2.9,1.1-6,3.1-8.2
			c2.4-2.4,5.6-2.9,8-2.9c2.4,0,5.8,0.4,8.2,3.1c2.4,2.7,2.9,5.8,2.9,8.4v0.4H706.1z M699.9,206.6c0-0.2-0.4-1.6-1.3-2.4
			c-0.7-0.7-1.8-1.1-3.1-1.1c-1.8,0-2.7,0.7-3.3,1.3c-0.4,0.7-0.9,1.3-1.1,2.2H699.9z"/>
		<path d="M717.5,204.6v15.3h-6.7v-15.3h-2.4v-5.3h2.4v-4c0-2.2,0.2-4.9,2.2-7.3c1.3-1.6,3.3-2.4,5.8-2.4c1.6,0,2.7,0.2,3.8,0.7v5.8
			c-0.7-0.4-1.8-0.9-2.7-0.9c-1.1,0-1.8,0.4-2,0.9c-0.7,0.9-0.7,2.7-0.7,3.6v3.6h5.3v5.3h-5.1V204.6z"/>
		<path d="M745.7,217.3c-1.8,1.8-5.1,3.3-9.1,3.3c-4,0-7.3-1.6-9.1-3.3c-2-2-3.1-5.1-3.1-7.8s1.1-5.6,3.1-7.8
			c1.8-1.8,5.1-3.3,9.1-3.3c4,0,7.3,1.6,9.1,3.3c2,2,3.1,5.1,3.1,7.8C748.8,212.1,747.9,215.3,745.7,217.3z M732.8,205.7
			c-0.9,0.9-1.6,2.2-1.6,4c0,2,0.7,3.1,1.6,4s2,1.6,3.8,1.6c1.6,0,2.7-0.4,3.8-1.6c0.9-0.9,1.6-2.2,1.6-4c0-1.8-0.7-2.9-1.6-4
			c-0.9-0.9-2.2-1.6-3.8-1.6C735,204.1,733.9,204.6,732.8,205.7z M743.5,189.7l-7.1,6.2l-3.1-2.2l5.8-7.1L743.5,189.7z"/>
		<path d="M753,199h6.7v2.4c2-2.7,4.4-3.1,6.4-3.1c1.8,0,4.2,0.2,6,2c2,2,2,4.4,2,6.2v13.1h-6.7V209c0-1.3,0-3.1-1.1-4.2
			c-0.4-0.4-1.3-0.9-2.7-0.9c-1.3,0-2.2,0.7-2.9,1.1c-1.1,1.1-1.3,2.7-1.3,4v10.7h-6.7V199H753z"/>
		<path d="M783.5,186.4c2.2,0,4,1.8,4,4s-1.8,4-4,4s-4-1.8-4-4S781.2,186.4,783.5,186.4z M786.8,199v20.9h-6.7V199H786.8z"/>
		<path d="M808.1,205.7c-1.6-1.3-3.3-1.6-4.4-1.6c-2,0-3.3,1.1-3.8,1.6c-0.9,0.9-1.6,2.2-1.6,4c0,1.6,0.7,2.9,1.3,3.8
			c1.1,1.1,2.7,1.8,4,1.8c1.1,0,2.7-0.2,4.2-1.6v6c-1.8,0.9-3.6,1.3-5.3,1.3c-3.6,0-6.2-1.3-8-3.1c-1.6-1.6-3.3-4.2-3.3-8
			c0-3.6,1.6-6.4,3.6-8.2c2.2-2.2,5.1-2.9,8-2.9c1.8,0,3.6,0.2,5.3,1.1L808.1,205.7L808.1,205.7z"/>
		<path d="M828.6,199h6.7v20.9h-6.7v-2.4c-1.8,2.9-4.4,3.1-6.2,3.1c-2.9,0-5.6-0.7-7.8-3.1c-2.2-2.2-3.1-5.1-3.1-7.8
			c0-3.6,1.3-6.4,3.1-8.4c1.8-1.8,4.4-2.9,7.3-2.9c1.8,0,4.7,0.4,6.4,3.1V199H828.6z M819.9,205.7c-0.7,0.7-1.6,2-1.6,3.8
			s0.9,3.1,1.3,3.8c0.9,0.9,2.4,1.6,4,1.6c1.3,0,2.7-0.7,3.6-1.6c0.9-0.9,1.6-2.2,1.6-4c0-1.6-0.7-2.9-1.6-3.8
			c-1.1-0.9-2.4-1.6-3.8-1.6C822.1,204.1,820.8,204.8,819.9,205.7z"/>
	</g>
</g>
<g id="Guides__x28_hide_if_needed_x29_">
</g>
</svg>
