<svg xmlns="http://www.w3.org/2000/svg" xmlns:xlink="http://www.w3.org/1999/xlink" width="250" zoomAndPan="magnify" viewBox="0 0 187.5 82.499998" height="110" preserveAspectRatio="xMidYMid meet" version="1.0"><defs><filter x="0%" y="0%" width="100%" height="100%" id="dccf48da2c"><feColorMatrix values="0 0 0 0 1 0 0 0 0 1 0 0 0 0 1 0 0 0 1 0" color-interpolation-filters="sRGB"/></filter><g/><clipPath id="225b6ece6f"><path d="M 0.316406 0 L 102 0 L 102 25 L 0.316406 25 Z M 0.316406 0 " clip-rule="nonzero"/></clipPath><mask id="19a656843d"><g filter="url(#dccf48da2c)"><rect x="-18.75" width="225" fill="#000000" y="-8.25" height="98.999997" fill-opacity="0.44"/></g></mask><clipPath id="c9cf1dbd24"><path d="M 10 0.195312 L 24 0.195312 L 24 52 L 10 52 Z M 10 0.195312 " clip-rule="nonzero"/></clipPath><clipPath id="14872ca26e"><path d="M -0.980469 43.457031 L 14.980469 -0.714844 L 39.519531 8.152344 L 23.558594 52.320312 Z M -0.980469 43.457031 " clip-rule="nonzero"/></clipPath><clipPath id="caa347b3c1"><path d="M 14.941406 -0.617188 L -1.015625 43.554688 L 23.523438 52.417969 L 39.480469 8.25 Z M 14.941406 -0.617188 " clip-rule="nonzero"/></clipPath><clipPath id="c640edffc9"><rect x="0" width="40" y="0" height="53"/></clipPath><mask id="97a79b744f"><g filter="url(#dccf48da2c)"><rect x="-18.75" width="225" fill="#000000" y="-8.25" height="98.999997" fill-opacity="0.44"/></g></mask><clipPath id="96489f3c9e"><path d="M 1 14 L 44 14 L 44 36 L 1 36 Z M 1 14 " clip-rule="nonzero"/></clipPath><clipPath id="7db252cfcd"><path d="M 28.175781 45.65625 L -0.820312 16.664062 L 15.523438 0.324219 L 44.515625 29.316406 Z M 28.175781 45.65625 " clip-rule="nonzero"/></clipPath><clipPath id="fdce0ab588"><path d="M -0.753906 16.730469 L 28.238281 45.722656 L 44.582031 29.382812 L 15.589844 0.390625 Z M -0.753906 16.730469 " clip-rule="nonzero"/></clipPath><clipPath id="bac901a894"><rect x="0" width="45" y="0" height="45"/></clipPath></defs><g clip-path="url(#225b6ece6f)"><g fill="#535353" fill-opacity="1"><g transform="translate(1.461879, 24.748262)"><g><path d="M 2.921875 -2.90625 C 2.972656 -2.695312 3.003906 -2.5 3.015625 -2.3125 C 3.023438 -2.125 3.007812 -1.941406 2.96875 -1.765625 C 2.925781 -1.597656 2.863281 -1.429688 2.78125 -1.265625 C 2.707031 -1.109375 2.597656 -0.96875 2.453125 -0.84375 C 2.316406 -0.726562 2.148438 -0.617188 1.953125 -0.515625 C 1.753906 -0.421875 1.519531 -0.34375 1.25 -0.28125 L 0.34375 -0.078125 L -0.59375 -4.28125 L 0.5 -4.515625 C 1.15625 -4.671875 1.679688 -4.613281 2.078125 -4.34375 C 2.484375 -4.082031 2.765625 -3.601562 2.921875 -2.90625 Z M 2.328125 -2.734375 C 2.265625 -3.035156 2.179688 -3.28125 2.078125 -3.46875 C 1.972656 -3.65625 1.847656 -3.800781 1.703125 -3.90625 C 1.554688 -4.007812 1.390625 -4.070312 1.203125 -4.09375 C 1.023438 -4.113281 0.820312 -4.097656 0.59375 -4.046875 L 0.109375 -3.9375 L 0.828125 -0.703125 L 1.25 -0.796875 C 2.207031 -1.015625 2.566406 -1.660156 2.328125 -2.734375 Z M 2.328125 -2.734375 "/></g></g><g transform="translate(5.088702, 23.941413)"><g><path d="M 2.859375 -2.5 C 2.867188 -2.425781 2.878906 -2.363281 2.890625 -2.3125 C 2.910156 -2.257812 2.921875 -2.207031 2.921875 -2.15625 L 0.640625 -1.65625 C 0.710938 -1.332031 0.863281 -1.097656 1.09375 -0.953125 C 1.320312 -0.816406 1.609375 -0.785156 1.953125 -0.859375 C 2.046875 -0.878906 2.140625 -0.898438 2.234375 -0.921875 C 2.328125 -0.953125 2.414062 -0.984375 2.5 -1.015625 C 2.582031 -1.054688 2.660156 -1.09375 2.734375 -1.125 C 2.816406 -1.15625 2.890625 -1.191406 2.953125 -1.234375 L 3.0625 -0.78125 C 2.925781 -0.695312 2.757812 -0.617188 2.5625 -0.546875 C 2.375 -0.472656 2.179688 -0.414062 1.984375 -0.375 C 1.703125 -0.3125 1.453125 -0.296875 1.234375 -0.328125 C 1.023438 -0.359375 0.835938 -0.429688 0.671875 -0.546875 C 0.515625 -0.660156 0.378906 -0.8125 0.265625 -1 C 0.160156 -1.195312 0.078125 -1.425781 0.015625 -1.6875 C -0.0351562 -1.914062 -0.046875 -2.140625 -0.015625 -2.359375 C 0.00390625 -2.578125 0.0546875 -2.773438 0.140625 -2.953125 C 0.234375 -3.128906 0.359375 -3.285156 0.515625 -3.421875 C 0.679688 -3.554688 0.878906 -3.648438 1.109375 -3.703125 C 1.335938 -3.753906 1.546875 -3.765625 1.734375 -3.734375 C 1.929688 -3.703125 2.101562 -3.632812 2.25 -3.53125 C 2.394531 -3.4375 2.519531 -3.300781 2.625 -3.125 C 2.726562 -2.945312 2.804688 -2.738281 2.859375 -2.5 Z M 2.25 -2.46875 C 2.21875 -2.613281 2.171875 -2.738281 2.109375 -2.84375 C 2.054688 -2.957031 1.984375 -3.050781 1.890625 -3.125 C 1.804688 -3.195312 1.703125 -3.242188 1.578125 -3.265625 C 1.453125 -3.296875 1.316406 -3.296875 1.171875 -3.265625 C 1.046875 -3.234375 0.941406 -3.179688 0.859375 -3.109375 C 0.785156 -3.035156 0.71875 -2.945312 0.65625 -2.84375 C 0.59375 -2.738281 0.550781 -2.625 0.53125 -2.5 C 0.507812 -2.375 0.507812 -2.238281 0.53125 -2.09375 Z M 2.25 -2.46875 "/></g></g><g transform="translate(8.715524, 23.134565)"><g/></g><g transform="translate(12.342346, 22.327717)"><g><path d="M 3 -0.796875 C 2.875 -0.703125 2.734375 -0.625 2.578125 -0.5625 C 2.429688 -0.5 2.28125 -0.453125 2.125 -0.421875 C 1.613281 -0.304688 1.1875 -0.359375 0.84375 -0.578125 C 0.5 -0.796875 0.265625 -1.171875 0.140625 -1.703125 C 0.0859375 -1.953125 0.078125 -2.191406 0.109375 -2.421875 C 0.148438 -2.648438 0.222656 -2.851562 0.328125 -3.03125 C 0.441406 -3.207031 0.585938 -3.359375 0.765625 -3.484375 C 0.953125 -3.609375 1.164062 -3.695312 1.40625 -3.75 C 1.570312 -3.789062 1.734375 -3.816406 1.890625 -3.828125 C 2.046875 -3.835938 2.191406 -3.828125 2.328125 -3.796875 L 2.453125 -3.265625 C 2.304688 -3.304688 2.148438 -3.328125 1.984375 -3.328125 C 1.828125 -3.335938 1.675781 -3.328125 1.53125 -3.296875 C 1.382812 -3.265625 1.253906 -3.203125 1.140625 -3.109375 C 1.023438 -3.023438 0.929688 -2.921875 0.859375 -2.796875 C 0.785156 -2.671875 0.734375 -2.53125 0.703125 -2.375 C 0.679688 -2.21875 0.691406 -2.039062 0.734375 -1.84375 C 0.816406 -1.457031 0.972656 -1.1875 1.203125 -1.03125 C 1.441406 -0.882812 1.738281 -0.847656 2.09375 -0.921875 C 2.238281 -0.953125 2.378906 -1 2.515625 -1.0625 C 2.648438 -1.125 2.773438 -1.207031 2.890625 -1.3125 Z M 3 -0.796875 "/></g></g><g transform="translate(15.969168, 21.520869)"><g><path d="M 3.109375 -0.6875 L 2.609375 -0.578125 L 2.484375 -1.09375 C 2.410156 -0.957031 2.335938 -0.84375 2.265625 -0.75 C 2.203125 -0.664062 2.128906 -0.59375 2.046875 -0.53125 C 1.972656 -0.46875 1.894531 -0.414062 1.8125 -0.375 C 1.726562 -0.332031 1.640625 -0.300781 1.546875 -0.28125 C 1.203125 -0.207031 0.921875 -0.25 0.703125 -0.40625 C 0.492188 -0.5625 0.347656 -0.835938 0.265625 -1.234375 L -0.203125 -3.34375 L 0.359375 -3.46875 L 0.8125 -1.40625 C 0.925781 -0.90625 1.164062 -0.695312 1.53125 -0.78125 C 1.601562 -0.800781 1.671875 -0.828125 1.734375 -0.859375 C 1.796875 -0.898438 1.859375 -0.953125 1.921875 -1.015625 C 1.984375 -1.085938 2.046875 -1.175781 2.109375 -1.28125 C 2.171875 -1.382812 2.242188 -1.503906 2.328125 -1.640625 L 1.84375 -3.796875 L 2.390625 -3.921875 Z M 3.109375 -0.6875 "/></g></g><g transform="translate(19.595991, 20.71402)"><g><path d="M 2.59375 -0.578125 L 2.484375 -1.015625 C 2.347656 -0.796875 2.195312 -0.625 2.03125 -0.5 C 1.863281 -0.382812 1.6875 -0.304688 1.5 -0.265625 C 1.300781 -0.222656 1.132812 -0.210938 1 -0.234375 C 0.863281 -0.253906 0.738281 -0.296875 0.625 -0.359375 C 0.519531 -0.421875 0.429688 -0.503906 0.359375 -0.609375 C 0.296875 -0.710938 0.253906 -0.832031 0.234375 -0.96875 C 0.160156 -1.289062 0.222656 -1.570312 0.421875 -1.8125 C 0.628906 -2.050781 0.96875 -2.21875 1.4375 -2.3125 L 2.109375 -2.46875 L 2.046875 -2.75 C 2.003906 -2.9375 1.910156 -3.078125 1.765625 -3.171875 C 1.617188 -3.265625 1.414062 -3.28125 1.15625 -3.21875 C 0.976562 -3.175781 0.800781 -3.113281 0.625 -3.03125 C 0.457031 -2.957031 0.289062 -2.859375 0.125 -2.734375 L 0.015625 -3.25 C 0.078125 -3.289062 0.144531 -3.332031 0.21875 -3.375 C 0.300781 -3.414062 0.390625 -3.457031 0.484375 -3.5 C 0.585938 -3.539062 0.6875 -3.578125 0.78125 -3.609375 C 0.882812 -3.648438 0.988281 -3.679688 1.09375 -3.703125 C 1.300781 -3.742188 1.484375 -3.757812 1.640625 -3.75 C 1.804688 -3.75 1.953125 -3.710938 2.078125 -3.640625 C 2.210938 -3.578125 2.320312 -3.484375 2.40625 -3.359375 C 2.488281 -3.242188 2.550781 -3.097656 2.59375 -2.921875 L 3.09375 -0.6875 Z M 2.203125 -2.046875 L 1.484375 -1.890625 C 1.347656 -1.859375 1.234375 -1.816406 1.140625 -1.765625 C 1.046875 -1.710938 0.96875 -1.648438 0.90625 -1.578125 C 0.851562 -1.515625 0.816406 -1.441406 0.796875 -1.359375 C 0.785156 -1.285156 0.789062 -1.207031 0.8125 -1.125 C 0.832031 -1.0625 0.859375 -1 0.890625 -0.9375 C 0.921875 -0.882812 0.960938 -0.835938 1.015625 -0.796875 C 1.066406 -0.765625 1.128906 -0.742188 1.203125 -0.734375 C 1.285156 -0.722656 1.378906 -0.726562 1.484375 -0.75 C 1.597656 -0.78125 1.726562 -0.851562 1.875 -0.96875 C 2.03125 -1.082031 2.179688 -1.25 2.328125 -1.46875 Z M 2.203125 -2.046875 "/></g></g><g transform="translate(23.222813, 19.907172)"><g><path d="M -0.203125 -3.34375 L 0.296875 -3.46875 L 0.421875 -2.953125 C 0.492188 -3.078125 0.566406 -3.1875 0.640625 -3.28125 C 0.722656 -3.382812 0.796875 -3.460938 0.859375 -3.515625 C 0.929688 -3.578125 1.007812 -3.628906 1.09375 -3.671875 C 1.1875 -3.710938 1.28125 -3.742188 1.375 -3.765625 C 1.707031 -3.835938 1.976562 -3.789062 2.1875 -3.625 C 2.40625 -3.46875 2.554688 -3.191406 2.640625 -2.796875 L 3.109375 -0.6875 L 2.5625 -0.5625 L 2.09375 -2.640625 C 2.039062 -2.878906 1.953125 -3.050781 1.828125 -3.15625 C 1.703125 -3.257812 1.550781 -3.289062 1.375 -3.25 C 1.300781 -3.238281 1.234375 -3.210938 1.171875 -3.171875 C 1.109375 -3.140625 1.046875 -3.085938 0.984375 -3.015625 C 0.929688 -2.953125 0.875 -2.867188 0.8125 -2.765625 C 0.75 -2.660156 0.675781 -2.535156 0.59375 -2.390625 L 1.078125 -0.234375 L 0.515625 -0.109375 Z M -0.203125 -3.34375 "/></g></g><g transform="translate(26.849635, 19.100324)"><g><path d="M 0 -1.640625 C -0.0625 -1.910156 -0.078125 -2.160156 -0.046875 -2.390625 C -0.015625 -2.617188 0.0507812 -2.820312 0.15625 -3 C 0.257812 -3.175781 0.398438 -3.320312 0.578125 -3.4375 C 0.753906 -3.5625 0.960938 -3.65625 1.203125 -3.71875 C 1.304688 -3.738281 1.410156 -3.75 1.515625 -3.75 C 1.617188 -3.757812 1.71875 -3.765625 1.8125 -3.765625 L 1.515625 -5.125 L 2.078125 -5.25 L 3.09375 -0.6875 L 2.59375 -0.578125 L 2.4375 -1.1875 C 2.320312 -0.925781 2.1875 -0.71875 2.03125 -0.5625 C 1.882812 -0.414062 1.707031 -0.316406 1.5 -0.265625 C 1.300781 -0.222656 1.125 -0.222656 0.96875 -0.265625 C 0.820312 -0.316406 0.679688 -0.398438 0.546875 -0.515625 C 0.421875 -0.640625 0.3125 -0.796875 0.21875 -0.984375 C 0.125 -1.171875 0.0507812 -1.390625 0 -1.640625 Z M 0.578125 -1.796875 C 0.671875 -1.398438 0.789062 -1.117188 0.9375 -0.953125 C 1.09375 -0.785156 1.28125 -0.726562 1.5 -0.78125 C 1.632812 -0.8125 1.765625 -0.90625 1.890625 -1.0625 C 2.015625 -1.226562 2.140625 -1.453125 2.265625 -1.734375 L 1.9375 -3.25 C 1.832031 -3.269531 1.722656 -3.273438 1.609375 -3.265625 C 1.492188 -3.265625 1.378906 -3.253906 1.265625 -3.234375 C 0.960938 -3.160156 0.75 -3.003906 0.625 -2.765625 C 0.507812 -2.535156 0.492188 -2.210938 0.578125 -1.796875 Z M 0.578125 -1.796875 "/></g></g><g transform="translate(30.476458, 18.293476)"><g><path d="M 2.984375 -2.390625 C 3.035156 -2.140625 3.046875 -1.898438 3.015625 -1.671875 C 2.992188 -1.453125 2.929688 -1.25 2.828125 -1.0625 C 2.722656 -0.882812 2.585938 -0.734375 2.421875 -0.609375 C 2.253906 -0.484375 2.046875 -0.390625 1.796875 -0.328125 C 1.566406 -0.273438 1.351562 -0.265625 1.15625 -0.296875 C 0.957031 -0.335938 0.773438 -0.410156 0.609375 -0.515625 C 0.453125 -0.628906 0.316406 -0.78125 0.203125 -0.96875 C 0.0859375 -1.15625 0 -1.382812 -0.0625 -1.65625 C -0.113281 -1.914062 -0.128906 -2.15625 -0.109375 -2.375 C -0.0859375 -2.59375 -0.0234375 -2.789062 0.078125 -2.96875 C 0.191406 -3.15625 0.332031 -3.3125 0.5 -3.4375 C 0.664062 -3.5625 0.867188 -3.648438 1.109375 -3.703125 C 1.347656 -3.753906 1.566406 -3.765625 1.765625 -3.734375 C 1.960938 -3.703125 2.140625 -3.632812 2.296875 -3.53125 C 2.453125 -3.425781 2.585938 -3.273438 2.703125 -3.078125 C 2.828125 -2.890625 2.921875 -2.660156 2.984375 -2.390625 Z M 2.40625 -2.21875 C 2.363281 -2.425781 2.300781 -2.597656 2.21875 -2.734375 C 2.132812 -2.867188 2.039062 -2.976562 1.9375 -3.0625 C 1.832031 -3.15625 1.71875 -3.210938 1.59375 -3.234375 C 1.46875 -3.265625 1.332031 -3.265625 1.1875 -3.234375 C 1.03125 -3.191406 0.894531 -3.125 0.78125 -3.03125 C 0.675781 -2.9375 0.59375 -2.820312 0.53125 -2.6875 C 0.476562 -2.5625 0.453125 -2.421875 0.453125 -2.265625 C 0.460938 -2.117188 0.484375 -1.960938 0.515625 -1.796875 C 0.554688 -1.597656 0.613281 -1.429688 0.6875 -1.296875 C 0.769531 -1.160156 0.863281 -1.050781 0.96875 -0.96875 C 1.070312 -0.882812 1.1875 -0.828125 1.3125 -0.796875 C 1.4375 -0.773438 1.570312 -0.78125 1.71875 -0.8125 C 1.894531 -0.851562 2.03125 -0.921875 2.125 -1.015625 C 2.226562 -1.109375 2.304688 -1.21875 2.359375 -1.34375 C 2.421875 -1.476562 2.453125 -1.617188 2.453125 -1.765625 C 2.453125 -1.910156 2.4375 -2.0625 2.40625 -2.21875 Z M 2.40625 -2.21875 "/></g></g><g transform="translate(34.10328, 17.486627)"><g/></g><g transform="translate(37.730102, 16.679779)"><g><path d="M 2.59375 -0.578125 L 2.484375 -1.015625 C 2.347656 -0.796875 2.195312 -0.625 2.03125 -0.5 C 1.863281 -0.382812 1.6875 -0.304688 1.5 -0.265625 C 1.300781 -0.222656 1.132812 -0.210938 1 -0.234375 C 0.863281 -0.253906 0.738281 -0.296875 0.625 -0.359375 C 0.519531 -0.421875 0.429688 -0.503906 0.359375 -0.609375 C 0.296875 -0.710938 0.253906 -0.832031 0.234375 -0.96875 C 0.160156 -1.289062 0.222656 -1.570312 0.421875 -1.8125 C 0.628906 -2.050781 0.96875 -2.21875 1.4375 -2.3125 L 2.109375 -2.46875 L 2.046875 -2.75 C 2.003906 -2.9375 1.910156 -3.078125 1.765625 -3.171875 C 1.617188 -3.265625 1.414062 -3.28125 1.15625 -3.21875 C 0.976562 -3.175781 0.800781 -3.113281 0.625 -3.03125 C 0.457031 -2.957031 0.289062 -2.859375 0.125 -2.734375 L 0.015625 -3.25 C 0.078125 -3.289062 0.144531 -3.332031 0.21875 -3.375 C 0.300781 -3.414062 0.390625 -3.457031 0.484375 -3.5 C 0.585938 -3.539062 0.6875 -3.578125 0.78125 -3.609375 C 0.882812 -3.648438 0.988281 -3.679688 1.09375 -3.703125 C 1.300781 -3.742188 1.484375 -3.757812 1.640625 -3.75 C 1.804688 -3.75 1.953125 -3.710938 2.078125 -3.640625 C 2.210938 -3.578125 2.320312 -3.484375 2.40625 -3.359375 C 2.488281 -3.242188 2.550781 -3.097656 2.59375 -2.921875 L 3.09375 -0.6875 Z M 2.203125 -2.046875 L 1.484375 -1.890625 C 1.347656 -1.859375 1.234375 -1.816406 1.140625 -1.765625 C 1.046875 -1.710938 0.96875 -1.648438 0.90625 -1.578125 C 0.851562 -1.515625 0.816406 -1.441406 0.796875 -1.359375 C 0.785156 -1.285156 0.789062 -1.207031 0.8125 -1.125 C 0.832031 -1.0625 0.859375 -1 0.890625 -0.9375 C 0.921875 -0.882812 0.960938 -0.835938 1.015625 -0.796875 C 1.066406 -0.765625 1.128906 -0.742188 1.203125 -0.734375 C 1.285156 -0.722656 1.378906 -0.726562 1.484375 -0.75 C 1.597656 -0.78125 1.726562 -0.851562 1.875 -0.96875 C 2.03125 -1.082031 2.179688 -1.25 2.328125 -1.46875 Z M 2.203125 -2.046875 "/></g></g><g transform="translate(41.356925, 15.872931)"><g><path d="M 3.109375 -0.6875 L 2.609375 -0.578125 L 2.484375 -1.09375 C 2.410156 -0.957031 2.335938 -0.84375 2.265625 -0.75 C 2.203125 -0.664062 2.128906 -0.59375 2.046875 -0.53125 C 1.972656 -0.46875 1.894531 -0.414062 1.8125 -0.375 C 1.726562 -0.332031 1.640625 -0.300781 1.546875 -0.28125 C 1.203125 -0.207031 0.921875 -0.25 0.703125 -0.40625 C 0.492188 -0.5625 0.347656 -0.835938 0.265625 -1.234375 L -0.203125 -3.34375 L 0.359375 -3.46875 L 0.8125 -1.40625 C 0.925781 -0.90625 1.164062 -0.695312 1.53125 -0.78125 C 1.601562 -0.800781 1.671875 -0.828125 1.734375 -0.859375 C 1.796875 -0.898438 1.859375 -0.953125 1.921875 -1.015625 C 1.984375 -1.085938 2.046875 -1.175781 2.109375 -1.28125 C 2.171875 -1.382812 2.242188 -1.503906 2.328125 -1.640625 L 1.84375 -3.796875 L 2.390625 -3.921875 Z M 2.046875 -5.25 L 1.203125 -4.234375 L 0.640625 -4.109375 L 1.234375 -5.0625 Z M -0.71875 -3.234375 Z M -0.71875 -3.234375 "/></g></g><g transform="translate(44.983747, 15.066083)"><g><path d="M -0.203125 -3.34375 L 0.296875 -3.46875 L 0.421875 -2.953125 C 0.492188 -3.078125 0.566406 -3.1875 0.640625 -3.28125 C 0.722656 -3.382812 0.796875 -3.460938 0.859375 -3.515625 C 0.929688 -3.578125 1.007812 -3.628906 1.09375 -3.671875 C 1.1875 -3.710938 1.28125 -3.742188 1.375 -3.765625 C 1.707031 -3.835938 1.976562 -3.789062 2.1875 -3.625 C 2.40625 -3.46875 2.554688 -3.191406 2.640625 -2.796875 L 3.109375 -0.6875 L 2.5625 -0.5625 L 2.09375 -2.640625 C 2.039062 -2.878906 1.953125 -3.050781 1.828125 -3.15625 C 1.703125 -3.257812 1.550781 -3.289062 1.375 -3.25 C 1.300781 -3.238281 1.234375 -3.210938 1.171875 -3.171875 C 1.109375 -3.140625 1.046875 -3.085938 0.984375 -3.015625 C 0.929688 -2.953125 0.875 -2.867188 0.8125 -2.765625 C 0.75 -2.660156 0.675781 -2.535156 0.59375 -2.390625 L 1.078125 -0.234375 L 0.515625 -0.109375 Z M -0.203125 -3.34375 "/></g></g><g transform="translate(48.610569, 14.259234)"><g/></g><g transform="translate(52.237391, 13.452386)"><g><path d="M -0.203125 -3.34375 L 0.296875 -3.46875 L 0.421875 -2.953125 C 0.492188 -3.078125 0.566406 -3.1875 0.640625 -3.28125 C 0.722656 -3.382812 0.796875 -3.460938 0.859375 -3.515625 C 0.929688 -3.578125 1.007812 -3.628906 1.09375 -3.671875 C 1.1875 -3.710938 1.28125 -3.742188 1.375 -3.765625 C 1.707031 -3.835938 1.976562 -3.789062 2.1875 -3.625 C 2.40625 -3.46875 2.554688 -3.191406 2.640625 -2.796875 L 3.109375 -0.6875 L 2.5625 -0.5625 L 2.09375 -2.640625 C 2.039062 -2.878906 1.953125 -3.050781 1.828125 -3.15625 C 1.703125 -3.257812 1.550781 -3.289062 1.375 -3.25 C 1.300781 -3.238281 1.234375 -3.210938 1.171875 -3.171875 C 1.109375 -3.140625 1.046875 -3.085938 0.984375 -3.015625 C 0.929688 -2.953125 0.875 -2.867188 0.8125 -2.765625 C 0.75 -2.660156 0.675781 -2.535156 0.59375 -2.390625 L 1.078125 -0.234375 L 0.515625 -0.109375 Z M -0.203125 -3.34375 "/></g></g><g transform="translate(55.864214, 12.645538)"><g><path d="M 2.984375 -2.390625 C 3.035156 -2.140625 3.046875 -1.898438 3.015625 -1.671875 C 2.992188 -1.453125 2.929688 -1.25 2.828125 -1.0625 C 2.722656 -0.882812 2.585938 -0.734375 2.421875 -0.609375 C 2.253906 -0.484375 2.046875 -0.390625 1.796875 -0.328125 C 1.566406 -0.273438 1.351562 -0.265625 1.15625 -0.296875 C 0.957031 -0.335938 0.773438 -0.410156 0.609375 -0.515625 C 0.453125 -0.628906 0.316406 -0.78125 0.203125 -0.96875 C 0.0859375 -1.15625 0 -1.382812 -0.0625 -1.65625 C -0.113281 -1.914062 -0.128906 -2.15625 -0.109375 -2.375 C -0.0859375 -2.59375 -0.0234375 -2.789062 0.078125 -2.96875 C 0.191406 -3.15625 0.332031 -3.3125 0.5 -3.4375 C 0.664062 -3.5625 0.867188 -3.648438 1.109375 -3.703125 C 1.347656 -3.753906 1.566406 -3.765625 1.765625 -3.734375 C 1.960938 -3.703125 2.140625 -3.632812 2.296875 -3.53125 C 2.453125 -3.425781 2.585938 -3.273438 2.703125 -3.078125 C 2.828125 -2.890625 2.921875 -2.660156 2.984375 -2.390625 Z M 2.40625 -2.21875 C 2.363281 -2.425781 2.300781 -2.597656 2.21875 -2.734375 C 2.132812 -2.867188 2.039062 -2.976562 1.9375 -3.0625 C 1.832031 -3.15625 1.71875 -3.210938 1.59375 -3.234375 C 1.46875 -3.265625 1.332031 -3.265625 1.1875 -3.234375 C 1.03125 -3.191406 0.894531 -3.125 0.78125 -3.03125 C 0.675781 -2.9375 0.59375 -2.820312 0.53125 -2.6875 C 0.476562 -2.5625 0.453125 -2.421875 0.453125 -2.265625 C 0.460938 -2.117188 0.484375 -1.960938 0.515625 -1.796875 C 0.554688 -1.597656 0.613281 -1.429688 0.6875 -1.296875 C 0.769531 -1.160156 0.863281 -1.050781 0.96875 -0.96875 C 1.070312 -0.882812 1.1875 -0.828125 1.3125 -0.796875 C 1.4375 -0.773438 1.570312 -0.78125 1.71875 -0.8125 C 1.894531 -0.851562 2.03125 -0.921875 2.125 -1.015625 C 2.226562 -1.109375 2.304688 -1.21875 2.359375 -1.34375 C 2.421875 -1.476562 2.453125 -1.617188 2.453125 -1.765625 C 2.453125 -1.910156 2.4375 -2.0625 2.40625 -2.21875 Z M 2.40625 -2.21875 "/></g></g><g transform="translate(59.491036, 11.838689)"><g/></g><g transform="translate(63.117858, 11.031841)"><g><path d="M 2.90625 -2.40625 C 2.96875 -2.125 2.984375 -1.863281 2.953125 -1.625 C 2.921875 -1.382812 2.847656 -1.175781 2.734375 -1 C 2.628906 -0.832031 2.488281 -0.691406 2.3125 -0.578125 C 2.132812 -0.460938 1.929688 -0.378906 1.703125 -0.328125 C 1.609375 -0.304688 1.503906 -0.289062 1.390625 -0.28125 C 1.285156 -0.28125 1.179688 -0.273438 1.078125 -0.265625 L 1.375 1.09375 L 0.8125 1.21875 L -0.203125 -3.34375 L 0.296875 -3.46875 L 0.453125 -2.9375 C 0.566406 -3.1875 0.703125 -3.375 0.859375 -3.5 C 1.023438 -3.632812 1.21875 -3.726562 1.4375 -3.78125 C 1.613281 -3.820312 1.78125 -3.816406 1.9375 -3.765625 C 2.09375 -3.722656 2.234375 -3.640625 2.359375 -3.515625 C 2.484375 -3.398438 2.59375 -3.25 2.6875 -3.0625 C 2.78125 -2.875 2.851562 -2.65625 2.90625 -2.40625 Z M 2.359375 -2.25 C 2.316406 -2.425781 2.265625 -2.582031 2.203125 -2.71875 C 2.148438 -2.851562 2.082031 -2.960938 2 -3.046875 C 1.914062 -3.140625 1.828125 -3.207031 1.734375 -3.25 C 1.648438 -3.289062 1.546875 -3.296875 1.421875 -3.265625 C 1.347656 -3.253906 1.273438 -3.226562 1.203125 -3.1875 C 1.140625 -3.15625 1.070312 -3.097656 1 -3.015625 C 0.9375 -2.941406 0.867188 -2.847656 0.796875 -2.734375 C 0.734375 -2.628906 0.671875 -2.503906 0.609375 -2.359375 L 0.953125 -0.78125 C 1.066406 -0.769531 1.179688 -0.757812 1.296875 -0.75 C 1.421875 -0.75 1.535156 -0.765625 1.640625 -0.796875 C 1.953125 -0.859375 2.171875 -1.015625 2.296875 -1.265625 C 2.421875 -1.515625 2.441406 -1.84375 2.359375 -2.25 Z M 2.359375 -2.25 "/></g></g><g transform="translate(66.744681, 10.224993)"><g><path d="M -0.078125 -3.375 L 0.4375 -3.5 L 0.578125 -2.90625 C 0.722656 -3.175781 0.878906 -3.382812 1.046875 -3.53125 C 1.210938 -3.675781 1.382812 -3.769531 1.5625 -3.8125 C 1.90625 -3.882812 2.1875 -3.828125 2.40625 -3.640625 C 2.625 -3.460938 2.78125 -3.160156 2.875 -2.734375 L 2.3125 -2.609375 C 2.238281 -2.890625 2.144531 -3.082031 2.03125 -3.1875 C 1.914062 -3.300781 1.773438 -3.34375 1.609375 -3.3125 C 1.523438 -3.289062 1.445312 -3.257812 1.375 -3.21875 C 1.300781 -3.175781 1.234375 -3.113281 1.171875 -3.03125 C 1.109375 -2.945312 1.039062 -2.847656 0.96875 -2.734375 C 0.90625 -2.628906 0.832031 -2.5 0.75 -2.34375 L 1.21875 -0.265625 L 0.640625 -0.140625 Z M -0.078125 -3.375 "/></g></g><g transform="translate(70.371503, 9.418145)"><g><path d="M 2.984375 -2.390625 C 3.035156 -2.140625 3.046875 -1.898438 3.015625 -1.671875 C 2.992188 -1.453125 2.929688 -1.25 2.828125 -1.0625 C 2.722656 -0.882812 2.585938 -0.734375 2.421875 -0.609375 C 2.253906 -0.484375 2.046875 -0.390625 1.796875 -0.328125 C 1.566406 -0.273438 1.351562 -0.265625 1.15625 -0.296875 C 0.957031 -0.335938 0.773438 -0.410156 0.609375 -0.515625 C 0.453125 -0.628906 0.316406 -0.78125 0.203125 -0.96875 C 0.0859375 -1.15625 0 -1.382812 -0.0625 -1.65625 C -0.113281 -1.914062 -0.128906 -2.15625 -0.109375 -2.375 C -0.0859375 -2.59375 -0.0234375 -2.789062 0.078125 -2.96875 C 0.191406 -3.15625 0.332031 -3.3125 0.5 -3.4375 C 0.664062 -3.5625 0.867188 -3.648438 1.109375 -3.703125 C 1.347656 -3.753906 1.566406 -3.765625 1.765625 -3.734375 C 1.960938 -3.703125 2.140625 -3.632812 2.296875 -3.53125 C 2.453125 -3.425781 2.585938 -3.273438 2.703125 -3.078125 C 2.828125 -2.890625 2.921875 -2.660156 2.984375 -2.390625 Z M 2.40625 -2.21875 C 2.363281 -2.425781 2.300781 -2.597656 2.21875 -2.734375 C 2.132812 -2.867188 2.039062 -2.976562 1.9375 -3.0625 C 1.832031 -3.15625 1.71875 -3.210938 1.59375 -3.234375 C 1.46875 -3.265625 1.332031 -3.265625 1.1875 -3.234375 C 1.03125 -3.191406 0.894531 -3.125 0.78125 -3.03125 C 0.675781 -2.9375 0.59375 -2.820312 0.53125 -2.6875 C 0.476562 -2.5625 0.453125 -2.421875 0.453125 -2.265625 C 0.460938 -2.117188 0.484375 -1.960938 0.515625 -1.796875 C 0.554688 -1.597656 0.613281 -1.429688 0.6875 -1.296875 C 0.769531 -1.160156 0.863281 -1.050781 0.96875 -0.96875 C 1.070312 -0.882812 1.1875 -0.828125 1.3125 -0.796875 C 1.4375 -0.773438 1.570312 -0.78125 1.71875 -0.8125 C 1.894531 -0.851562 2.03125 -0.921875 2.125 -1.015625 C 2.226562 -1.109375 2.304688 -1.21875 2.359375 -1.34375 C 2.421875 -1.476562 2.453125 -1.617188 2.453125 -1.765625 C 2.453125 -1.910156 2.4375 -2.0625 2.40625 -2.21875 Z M 2.40625 -2.21875 "/></g></g><g transform="translate(73.998325, 8.611296)"><g><path d="M 2.234375 -3.421875 C 2.304688 -3.359375 2.367188 -3.273438 2.421875 -3.171875 C 2.472656 -3.078125 2.515625 -2.976562 2.546875 -2.875 C 2.578125 -2.695312 2.578125 -2.535156 2.546875 -2.390625 C 2.523438 -2.242188 2.46875 -2.109375 2.375 -1.984375 C 2.28125 -1.859375 2.160156 -1.75 2.015625 -1.65625 C 1.878906 -1.5625 1.71875 -1.492188 1.53125 -1.453125 C 1.40625 -1.421875 1.273438 -1.40625 1.140625 -1.40625 C 1.015625 -1.40625 0.914062 -1.425781 0.84375 -1.46875 C 0.8125 -1.394531 0.785156 -1.328125 0.765625 -1.265625 C 0.742188 -1.203125 0.742188 -1.144531 0.765625 -1.09375 C 0.773438 -1.007812 0.828125 -0.945312 0.921875 -0.90625 C 1.023438 -0.863281 1.140625 -0.859375 1.265625 -0.890625 L 2.109375 -1.046875 C 2.273438 -1.066406 2.429688 -1.070312 2.578125 -1.0625 C 2.722656 -1.0625 2.851562 -1.035156 2.96875 -0.984375 C 3.082031 -0.941406 3.175781 -0.878906 3.25 -0.796875 C 3.332031 -0.710938 3.390625 -0.597656 3.421875 -0.453125 C 3.453125 -0.316406 3.453125 -0.175781 3.421875 -0.03125 C 3.390625 0.113281 3.316406 0.242188 3.203125 0.359375 C 3.097656 0.484375 2.953125 0.597656 2.765625 0.703125 C 2.578125 0.816406 2.34375 0.90625 2.0625 0.96875 C 1.800781 1.019531 1.578125 1.046875 1.390625 1.046875 C 1.203125 1.046875 1.035156 1.019531 0.890625 0.96875 C 0.742188 0.914062 0.632812 0.847656 0.5625 0.765625 C 0.5 0.679688 0.453125 0.578125 0.421875 0.453125 C 0.390625 0.296875 0.394531 0.148438 0.4375 0.015625 C 0.476562 -0.117188 0.566406 -0.265625 0.703125 -0.421875 C 0.640625 -0.429688 0.582031 -0.445312 0.53125 -0.46875 C 0.476562 -0.5 0.429688 -0.535156 0.390625 -0.578125 C 0.359375 -0.617188 0.328125 -0.660156 0.296875 -0.703125 C 0.273438 -0.753906 0.257812 -0.804688 0.25 -0.859375 C 0.21875 -0.992188 0.222656 -1.125 0.265625 -1.25 C 0.304688 -1.382812 0.363281 -1.519531 0.4375 -1.65625 C 0.382812 -1.6875 0.335938 -1.722656 0.296875 -1.765625 C 0.253906 -1.804688 0.210938 -1.851562 0.171875 -1.90625 C 0.140625 -1.957031 0.109375 -2.007812 0.078125 -2.0625 C 0.0546875 -2.125 0.0351562 -2.195312 0.015625 -2.28125 C -0.0234375 -2.445312 -0.03125 -2.609375 0 -2.765625 C 0.0390625 -2.921875 0.101562 -3.054688 0.1875 -3.171875 C 0.269531 -3.296875 0.382812 -3.398438 0.53125 -3.484375 C 0.675781 -3.578125 0.84375 -3.644531 1.03125 -3.6875 C 1.113281 -3.707031 1.191406 -3.71875 1.265625 -3.71875 C 1.347656 -3.726562 1.421875 -3.726562 1.484375 -3.71875 L 2.65625 -3.984375 L 2.75 -3.53125 Z M 1.015625 0.265625 C 1.046875 0.421875 1.144531 0.515625 1.3125 0.546875 C 1.488281 0.578125 1.71875 0.5625 2 0.5 C 2.1875 0.457031 2.335938 0.40625 2.453125 0.34375 C 2.566406 0.289062 2.648438 0.226562 2.703125 0.15625 C 2.765625 0.09375 2.804688 0.0234375 2.828125 -0.046875 C 2.847656 -0.128906 2.851562 -0.207031 2.84375 -0.28125 C 2.8125 -0.394531 2.726562 -0.472656 2.59375 -0.515625 C 2.46875 -0.566406 2.300781 -0.570312 2.09375 -0.53125 L 1.234375 -0.375 C 1.171875 -0.300781 1.117188 -0.234375 1.078125 -0.171875 C 1.046875 -0.117188 1.023438 -0.0664062 1.015625 -0.015625 C 1.003906 0.0351562 1 0.0820312 1 0.125 C 1 0.164062 1.003906 0.210938 1.015625 0.265625 Z M 0.578125 -2.421875 C 0.597656 -2.316406 0.632812 -2.222656 0.6875 -2.140625 C 0.75 -2.066406 0.816406 -2.003906 0.890625 -1.953125 C 0.960938 -1.910156 1.046875 -1.878906 1.140625 -1.859375 C 1.234375 -1.847656 1.332031 -1.851562 1.4375 -1.875 C 1.550781 -1.90625 1.644531 -1.945312 1.71875 -2 C 1.800781 -2.050781 1.863281 -2.117188 1.90625 -2.203125 C 1.945312 -2.285156 1.972656 -2.367188 1.984375 -2.453125 C 2.003906 -2.546875 2.003906 -2.640625 1.984375 -2.734375 C 1.960938 -2.828125 1.921875 -2.914062 1.859375 -3 C 1.804688 -3.082031 1.742188 -3.144531 1.671875 -3.1875 C 1.597656 -3.238281 1.515625 -3.269531 1.421875 -3.28125 C 1.328125 -3.289062 1.226562 -3.285156 1.125 -3.265625 C 1.007812 -3.242188 0.914062 -3.203125 0.84375 -3.140625 C 0.769531 -3.085938 0.707031 -3.019531 0.65625 -2.9375 C 0.613281 -2.863281 0.582031 -2.78125 0.5625 -2.6875 C 0.550781 -2.59375 0.554688 -2.503906 0.578125 -2.421875 Z M 0.578125 -2.421875 "/></g></g><g transform="translate(77.625148, 7.804448)"><g><path d="M -0.078125 -3.375 L 0.4375 -3.5 L 0.578125 -2.90625 C 0.722656 -3.175781 0.878906 -3.382812 1.046875 -3.53125 C 1.210938 -3.675781 1.382812 -3.769531 1.5625 -3.8125 C 1.90625 -3.882812 2.1875 -3.828125 2.40625 -3.640625 C 2.625 -3.460938 2.78125 -3.160156 2.875 -2.734375 L 2.3125 -2.609375 C 2.238281 -2.890625 2.144531 -3.082031 2.03125 -3.1875 C 1.914062 -3.300781 1.773438 -3.34375 1.609375 -3.3125 C 1.523438 -3.289062 1.445312 -3.257812 1.375 -3.21875 C 1.300781 -3.175781 1.234375 -3.113281 1.171875 -3.03125 C 1.109375 -2.945312 1.039062 -2.847656 0.96875 -2.734375 C 0.90625 -2.628906 0.832031 -2.5 0.75 -2.34375 L 1.21875 -0.265625 L 0.640625 -0.140625 Z M -0.078125 -3.375 "/></g></g><g transform="translate(81.25197, 6.9976)"><g><path d="M 2.59375 -0.578125 L 2.484375 -1.015625 C 2.347656 -0.796875 2.195312 -0.625 2.03125 -0.5 C 1.863281 -0.382812 1.6875 -0.304688 1.5 -0.265625 C 1.300781 -0.222656 1.132812 -0.210938 1 -0.234375 C 0.863281 -0.253906 0.738281 -0.296875 0.625 -0.359375 C 0.519531 -0.421875 0.429688 -0.503906 0.359375 -0.609375 C 0.296875 -0.710938 0.253906 -0.832031 0.234375 -0.96875 C 0.160156 -1.289062 0.222656 -1.570312 0.421875 -1.8125 C 0.628906 -2.050781 0.96875 -2.21875 1.4375 -2.3125 L 2.109375 -2.46875 L 2.046875 -2.75 C 2.003906 -2.9375 1.910156 -3.078125 1.765625 -3.171875 C 1.617188 -3.265625 1.414062 -3.28125 1.15625 -3.21875 C 0.976562 -3.175781 0.800781 -3.113281 0.625 -3.03125 C 0.457031 -2.957031 0.289062 -2.859375 0.125 -2.734375 L 0.015625 -3.25 C 0.078125 -3.289062 0.144531 -3.332031 0.21875 -3.375 C 0.300781 -3.414062 0.390625 -3.457031 0.484375 -3.5 C 0.585938 -3.539062 0.6875 -3.578125 0.78125 -3.609375 C 0.882812 -3.648438 0.988281 -3.679688 1.09375 -3.703125 C 1.300781 -3.742188 1.484375 -3.757812 1.640625 -3.75 C 1.804688 -3.75 1.953125 -3.710938 2.078125 -3.640625 C 2.210938 -3.578125 2.320312 -3.484375 2.40625 -3.359375 C 2.488281 -3.242188 2.550781 -3.097656 2.59375 -2.921875 L 3.09375 -0.6875 Z M 2.203125 -2.046875 L 1.484375 -1.890625 C 1.347656 -1.859375 1.234375 -1.816406 1.140625 -1.765625 C 1.046875 -1.710938 0.96875 -1.648438 0.90625 -1.578125 C 0.851562 -1.515625 0.816406 -1.441406 0.796875 -1.359375 C 0.785156 -1.285156 0.789062 -1.207031 0.8125 -1.125 C 0.832031 -1.0625 0.859375 -1 0.890625 -0.9375 C 0.921875 -0.882812 0.960938 -0.835938 1.015625 -0.796875 C 1.066406 -0.765625 1.128906 -0.742188 1.203125 -0.734375 C 1.285156 -0.722656 1.378906 -0.726562 1.484375 -0.75 C 1.597656 -0.78125 1.726562 -0.851562 1.875 -0.96875 C 2.03125 -1.082031 2.179688 -1.25 2.328125 -1.46875 Z M 2.203125 -2.046875 "/></g></g><g transform="translate(84.878792, 6.190752)"><g><path d="M 2.828125 -0.625 L 2.3125 -2.9375 C 2.289062 -3.039062 2.269531 -3.125 2.25 -3.1875 C 2.226562 -3.257812 2.203125 -3.3125 2.171875 -3.34375 C 2.148438 -3.375 2.125 -3.394531 2.09375 -3.40625 C 2.070312 -3.414062 2.039062 -3.414062 2 -3.40625 C 1.957031 -3.394531 1.921875 -3.375 1.890625 -3.34375 C 1.859375 -3.3125 1.820312 -3.257812 1.78125 -3.1875 C 1.75 -3.125 1.722656 -3.035156 1.703125 -2.921875 C 1.679688 -2.816406 1.648438 -2.691406 1.609375 -2.546875 L 2.078125 -0.46875 L 1.5625 -0.34375 L 1.0625 -2.59375 C 1.03125 -2.71875 1.003906 -2.816406 0.984375 -2.890625 C 0.960938 -2.960938 0.9375 -3.015625 0.90625 -3.046875 C 0.875 -3.085938 0.84375 -3.113281 0.8125 -3.125 C 0.789062 -3.132812 0.765625 -3.132812 0.734375 -3.125 C 0.691406 -3.113281 0.65625 -3.09375 0.625 -3.0625 C 0.59375 -3.039062 0.5625 -2.992188 0.53125 -2.921875 C 0.5 -2.859375 0.46875 -2.769531 0.4375 -2.65625 C 0.414062 -2.550781 0.382812 -2.421875 0.34375 -2.265625 L 0.8125 -0.1875 L 0.296875 -0.0625 L -0.421875 -3.296875 L 0 -3.390625 L 0.171875 -2.796875 C 0.191406 -2.929688 0.21875 -3.046875 0.25 -3.140625 C 0.28125 -3.234375 0.316406 -3.3125 0.359375 -3.375 C 0.410156 -3.445312 0.460938 -3.5 0.515625 -3.53125 C 0.578125 -3.570312 0.648438 -3.601562 0.734375 -3.625 C 0.898438 -3.664062 1.039062 -3.632812 1.15625 -3.53125 C 1.28125 -3.4375 1.367188 -3.269531 1.421875 -3.03125 C 1.453125 -3.164062 1.476562 -3.273438 1.5 -3.359375 C 1.53125 -3.453125 1.566406 -3.535156 1.609375 -3.609375 C 1.648438 -3.691406 1.703125 -3.753906 1.765625 -3.796875 C 1.828125 -3.847656 1.90625 -3.882812 2 -3.90625 C 2.40625 -4 2.675781 -3.734375 2.8125 -3.109375 L 3.34375 -0.75 Z M 2.828125 -0.625 "/></g></g><g transform="translate(88.505614, 5.383903)"><g><path d="M 2.59375 -0.578125 L 2.484375 -1.015625 C 2.347656 -0.796875 2.195312 -0.625 2.03125 -0.5 C 1.863281 -0.382812 1.6875 -0.304688 1.5 -0.265625 C 1.300781 -0.222656 1.132812 -0.210938 1 -0.234375 C 0.863281 -0.253906 0.738281 -0.296875 0.625 -0.359375 C 0.519531 -0.421875 0.429688 -0.503906 0.359375 -0.609375 C 0.296875 -0.710938 0.253906 -0.832031 0.234375 -0.96875 C 0.160156 -1.289062 0.222656 -1.570312 0.421875 -1.8125 C 0.628906 -2.050781 0.96875 -2.21875 1.4375 -2.3125 L 2.109375 -2.46875 L 2.046875 -2.75 C 2.003906 -2.9375 1.910156 -3.078125 1.765625 -3.171875 C 1.617188 -3.265625 1.414062 -3.28125 1.15625 -3.21875 C 0.976562 -3.175781 0.800781 -3.113281 0.625 -3.03125 C 0.457031 -2.957031 0.289062 -2.859375 0.125 -2.734375 L 0.015625 -3.25 C 0.078125 -3.289062 0.144531 -3.332031 0.21875 -3.375 C 0.300781 -3.414062 0.390625 -3.457031 0.484375 -3.5 C 0.585938 -3.539062 0.6875 -3.578125 0.78125 -3.609375 C 0.882812 -3.648438 0.988281 -3.679688 1.09375 -3.703125 C 1.300781 -3.742188 1.484375 -3.757812 1.640625 -3.75 C 1.804688 -3.75 1.953125 -3.710938 2.078125 -3.640625 C 2.210938 -3.578125 2.320312 -3.484375 2.40625 -3.359375 C 2.488281 -3.242188 2.550781 -3.097656 2.59375 -2.921875 L 3.09375 -0.6875 Z M 2.203125 -2.046875 L 1.484375 -1.890625 C 1.347656 -1.859375 1.234375 -1.816406 1.140625 -1.765625 C 1.046875 -1.710938 0.96875 -1.648438 0.90625 -1.578125 C 0.851562 -1.515625 0.816406 -1.441406 0.796875 -1.359375 C 0.785156 -1.285156 0.789062 -1.207031 0.8125 -1.125 C 0.832031 -1.0625 0.859375 -1 0.890625 -0.9375 C 0.921875 -0.882812 0.960938 -0.835938 1.015625 -0.796875 C 1.066406 -0.765625 1.128906 -0.742188 1.203125 -0.734375 C 1.285156 -0.722656 1.378906 -0.726562 1.484375 -0.75 C 1.597656 -0.78125 1.726562 -0.851562 1.875 -0.96875 C 2.03125 -1.082031 2.179688 -1.25 2.328125 -1.46875 Z M 2.203125 -2.046875 "/></g></g><g transform="translate(92.132437, 4.577055)"><g><path d="M 2.90625 -2.40625 C 2.96875 -2.144531 2.984375 -1.898438 2.953125 -1.671875 C 2.929688 -1.441406 2.867188 -1.238281 2.765625 -1.0625 C 2.660156 -0.882812 2.519531 -0.726562 2.34375 -0.59375 C 2.164062 -0.46875 1.953125 -0.378906 1.703125 -0.328125 C 1.515625 -0.285156 1.316406 -0.265625 1.109375 -0.265625 C 0.898438 -0.265625 0.6875 -0.273438 0.46875 -0.296875 L -0.5 -4.671875 L 0.0625 -4.796875 L 0.34375 -3.546875 L 0.453125 -2.9375 C 0.566406 -3.1875 0.703125 -3.375 0.859375 -3.5 C 1.023438 -3.632812 1.21875 -3.726562 1.4375 -3.78125 C 1.613281 -3.820312 1.78125 -3.816406 1.9375 -3.765625 C 2.09375 -3.722656 2.234375 -3.640625 2.359375 -3.515625 C 2.484375 -3.398438 2.59375 -3.25 2.6875 -3.0625 C 2.78125 -2.875 2.851562 -2.65625 2.90625 -2.40625 Z M 2.359375 -2.25 C 2.316406 -2.425781 2.265625 -2.582031 2.203125 -2.71875 C 2.148438 -2.851562 2.082031 -2.960938 2 -3.046875 C 1.914062 -3.140625 1.828125 -3.207031 1.734375 -3.25 C 1.648438 -3.289062 1.546875 -3.296875 1.421875 -3.265625 C 1.347656 -3.253906 1.273438 -3.226562 1.203125 -3.1875 C 1.140625 -3.15625 1.070312 -3.097656 1 -3.015625 C 0.9375 -2.941406 0.867188 -2.847656 0.796875 -2.734375 C 0.734375 -2.628906 0.671875 -2.503906 0.609375 -2.359375 L 0.953125 -0.78125 C 1.066406 -0.769531 1.1875 -0.765625 1.3125 -0.765625 C 1.4375 -0.765625 1.546875 -0.773438 1.640625 -0.796875 C 1.773438 -0.828125 1.894531 -0.875 2 -0.9375 C 2.101562 -1.007812 2.1875 -1.101562 2.25 -1.21875 C 2.320312 -1.332031 2.367188 -1.472656 2.390625 -1.640625 C 2.421875 -1.816406 2.410156 -2.019531 2.359375 -2.25 Z M 2.359375 -2.25 "/></g></g><g transform="translate(95.759259, 3.770207)"><g><path d="M 2.59375 -0.578125 L 2.484375 -1.015625 C 2.347656 -0.796875 2.195312 -0.625 2.03125 -0.5 C 1.863281 -0.382812 1.6875 -0.304688 1.5 -0.265625 C 1.300781 -0.222656 1.132812 -0.210938 1 -0.234375 C 0.863281 -0.253906 0.738281 -0.296875 0.625 -0.359375 C 0.519531 -0.421875 0.429688 -0.503906 0.359375 -0.609375 C 0.296875 -0.710938 0.253906 -0.832031 0.234375 -0.96875 C 0.160156 -1.289062 0.222656 -1.570312 0.421875 -1.8125 C 0.628906 -2.050781 0.96875 -2.21875 1.4375 -2.3125 L 2.109375 -2.46875 L 2.046875 -2.75 C 2.003906 -2.9375 1.910156 -3.078125 1.765625 -3.171875 C 1.617188 -3.265625 1.414062 -3.28125 1.15625 -3.21875 C 0.976562 -3.175781 0.800781 -3.113281 0.625 -3.03125 C 0.457031 -2.957031 0.289062 -2.859375 0.125 -2.734375 L 0.015625 -3.25 C 0.078125 -3.289062 0.144531 -3.332031 0.21875 -3.375 C 0.300781 -3.414062 0.390625 -3.457031 0.484375 -3.5 C 0.585938 -3.539062 0.6875 -3.578125 0.78125 -3.609375 C 0.882812 -3.648438 0.988281 -3.679688 1.09375 -3.703125 C 1.300781 -3.742188 1.484375 -3.757812 1.640625 -3.75 C 1.804688 -3.75 1.953125 -3.710938 2.078125 -3.640625 C 2.210938 -3.578125 2.320312 -3.484375 2.40625 -3.359375 C 2.488281 -3.242188 2.550781 -3.097656 2.59375 -2.921875 L 3.09375 -0.6875 Z M 2.203125 -2.046875 L 1.484375 -1.890625 C 1.347656 -1.859375 1.234375 -1.816406 1.140625 -1.765625 C 1.046875 -1.710938 0.96875 -1.648438 0.90625 -1.578125 C 0.851562 -1.515625 0.816406 -1.441406 0.796875 -1.359375 C 0.785156 -1.285156 0.789062 -1.207031 0.8125 -1.125 C 0.832031 -1.0625 0.859375 -1 0.890625 -0.9375 C 0.921875 -0.882812 0.960938 -0.835938 1.015625 -0.796875 C 1.066406 -0.765625 1.128906 -0.742188 1.203125 -0.734375 C 1.285156 -0.722656 1.378906 -0.726562 1.484375 -0.75 C 1.597656 -0.78125 1.726562 -0.851562 1.875 -0.96875 C 2.03125 -1.082031 2.179688 -1.25 2.328125 -1.46875 Z M 2.203125 -2.046875 "/></g></g><g transform="translate(99.386081, 2.963359)"><g><path d="M 0.90625 0.484375 C 1.03125 0.472656 1.132812 0.441406 1.21875 0.390625 C 1.3125 0.335938 1.394531 0.28125 1.46875 0.21875 C 1.550781 0.15625 1.601562 0.0820312 1.625 0 C 1.644531 -0.0703125 1.648438 -0.148438 1.640625 -0.234375 C 1.617188 -0.328125 1.585938 -0.398438 1.546875 -0.453125 C 1.503906 -0.503906 1.457031 -0.546875 1.40625 -0.578125 C 1.351562 -0.609375 1.304688 -0.648438 1.265625 -0.703125 C 1.222656 -0.753906 1.191406 -0.828125 1.171875 -0.921875 C 1.160156 -0.960938 1.160156 -1.007812 1.171875 -1.0625 C 1.179688 -1.125 1.195312 -1.175781 1.21875 -1.21875 C 1.25 -1.257812 1.285156 -1.296875 1.328125 -1.328125 C 1.367188 -1.367188 1.429688 -1.398438 1.515625 -1.421875 C 1.585938 -1.429688 1.664062 -1.429688 1.75 -1.421875 C 1.832031 -1.421875 1.90625 -1.390625 1.96875 -1.328125 C 2.03125 -1.273438 2.082031 -1.203125 2.125 -1.109375 C 2.175781 -1.015625 2.21875 -0.90625 2.25 -0.78125 C 2.289062 -0.601562 2.300781 -0.421875 2.28125 -0.234375 C 2.257812 -0.0546875 2.195312 0.109375 2.09375 0.265625 C 1.988281 0.421875 1.847656 0.550781 1.671875 0.65625 C 1.492188 0.769531 1.273438 0.859375 1.015625 0.921875 Z M 0.90625 0.484375 "/></g></g></g></g><g fill="#535353" fill-opacity="1"><g transform="translate(103.012903, 2.156511)"><g/></g></g><g fill="#535353" fill-opacity="1"><g transform="translate(15.610547, 27.658309)"><g><path d="M 2.90625 -2.40625 C 2.96875 -2.125 2.984375 -1.863281 2.953125 -1.625 C 2.921875 -1.382812 2.847656 -1.175781 2.734375 -1 C 2.628906 -0.832031 2.488281 -0.691406 2.3125 -0.578125 C 2.132812 -0.460938 1.929688 -0.378906 1.703125 -0.328125 C 1.609375 -0.304688 1.503906 -0.289062 1.390625 -0.28125 C 1.285156 -0.28125 1.179688 -0.273438 1.078125 -0.265625 L 1.375 1.09375 L 0.8125 1.21875 L -0.203125 -3.34375 L 0.296875 -3.46875 L 0.453125 -2.9375 C 0.566406 -3.1875 0.703125 -3.375 0.859375 -3.5 C 1.023438 -3.632812 1.21875 -3.726562 1.4375 -3.78125 C 1.613281 -3.820312 1.78125 -3.816406 1.9375 -3.765625 C 2.09375 -3.722656 2.234375 -3.640625 2.359375 -3.515625 C 2.484375 -3.398438 2.59375 -3.25 2.6875 -3.0625 C 2.78125 -2.875 2.851562 -2.65625 2.90625 -2.40625 Z M 2.359375 -2.25 C 2.316406 -2.425781 2.265625 -2.582031 2.203125 -2.71875 C 2.148438 -2.851562 2.082031 -2.960938 2 -3.046875 C 1.914062 -3.140625 1.828125 -3.207031 1.734375 -3.25 C 1.648438 -3.289062 1.546875 -3.296875 1.421875 -3.265625 C 1.347656 -3.253906 1.273438 -3.226562 1.203125 -3.1875 C 1.140625 -3.15625 1.070312 -3.097656 1 -3.015625 C 0.9375 -2.941406 0.867188 -2.847656 0.796875 -2.734375 C 0.734375 -2.628906 0.671875 -2.503906 0.609375 -2.359375 L 0.953125 -0.78125 C 1.066406 -0.769531 1.179688 -0.757812 1.296875 -0.75 C 1.421875 -0.75 1.535156 -0.765625 1.640625 -0.796875 C 1.953125 -0.859375 2.171875 -1.015625 2.296875 -1.265625 C 2.421875 -1.515625 2.441406 -1.84375 2.359375 -2.25 Z M 2.359375 -2.25 "/></g></g><g transform="translate(19.23737, 26.851461)"><g><path d="M 2.859375 -2.5 C 2.867188 -2.425781 2.878906 -2.363281 2.890625 -2.3125 C 2.910156 -2.257812 2.921875 -2.207031 2.921875 -2.15625 L 0.640625 -1.65625 C 0.710938 -1.332031 0.863281 -1.097656 1.09375 -0.953125 C 1.320312 -0.816406 1.609375 -0.785156 1.953125 -0.859375 C 2.046875 -0.878906 2.140625 -0.898438 2.234375 -0.921875 C 2.328125 -0.953125 2.414062 -0.984375 2.5 -1.015625 C 2.582031 -1.054688 2.660156 -1.09375 2.734375 -1.125 C 2.816406 -1.15625 2.890625 -1.191406 2.953125 -1.234375 L 3.0625 -0.78125 C 2.925781 -0.695312 2.757812 -0.617188 2.5625 -0.546875 C 2.375 -0.472656 2.179688 -0.414062 1.984375 -0.375 C 1.703125 -0.3125 1.453125 -0.296875 1.234375 -0.328125 C 1.023438 -0.359375 0.835938 -0.429688 0.671875 -0.546875 C 0.515625 -0.660156 0.378906 -0.8125 0.265625 -1 C 0.160156 -1.195312 0.078125 -1.425781 0.015625 -1.6875 C -0.0351562 -1.914062 -0.046875 -2.140625 -0.015625 -2.359375 C 0.00390625 -2.578125 0.0546875 -2.773438 0.140625 -2.953125 C 0.234375 -3.128906 0.359375 -3.285156 0.515625 -3.421875 C 0.679688 -3.554688 0.878906 -3.648438 1.109375 -3.703125 C 1.335938 -3.753906 1.546875 -3.765625 1.734375 -3.734375 C 1.929688 -3.703125 2.101562 -3.632812 2.25 -3.53125 C 2.394531 -3.4375 2.519531 -3.300781 2.625 -3.125 C 2.726562 -2.945312 2.804688 -2.738281 2.859375 -2.5 Z M 2.25 -2.46875 C 2.21875 -2.613281 2.171875 -2.738281 2.109375 -2.84375 C 2.054688 -2.957031 1.984375 -3.050781 1.890625 -3.125 C 1.804688 -3.195312 1.703125 -3.242188 1.578125 -3.265625 C 1.453125 -3.296875 1.316406 -3.296875 1.171875 -3.265625 C 1.046875 -3.234375 0.941406 -3.179688 0.859375 -3.109375 C 0.785156 -3.035156 0.71875 -2.945312 0.65625 -2.84375 C 0.59375 -2.738281 0.550781 -2.625 0.53125 -2.5 C 0.507812 -2.375 0.507812 -2.238281 0.53125 -2.09375 Z M 2.25 -2.46875 "/></g></g><g transform="translate(22.864192, 26.044613)"><g><path d="M -0.078125 -3.375 L 0.4375 -3.5 L 0.578125 -2.90625 C 0.722656 -3.175781 0.878906 -3.382812 1.046875 -3.53125 C 1.210938 -3.675781 1.382812 -3.769531 1.5625 -3.8125 C 1.90625 -3.882812 2.1875 -3.828125 2.40625 -3.640625 C 2.625 -3.460938 2.78125 -3.160156 2.875 -2.734375 L 2.3125 -2.609375 C 2.238281 -2.890625 2.144531 -3.082031 2.03125 -3.1875 C 1.914062 -3.300781 1.773438 -3.34375 1.609375 -3.3125 C 1.523438 -3.289062 1.445312 -3.257812 1.375 -3.21875 C 1.300781 -3.175781 1.234375 -3.113281 1.171875 -3.03125 C 1.109375 -2.945312 1.039062 -2.847656 0.96875 -2.734375 C 0.90625 -2.628906 0.832031 -2.5 0.75 -2.34375 L 1.21875 -0.265625 L 0.640625 -0.140625 Z M -0.078125 -3.375 "/></g></g><g transform="translate(26.491014, 25.237764)"><g><path d="M 2.984375 -2.390625 C 3.035156 -2.140625 3.046875 -1.898438 3.015625 -1.671875 C 2.992188 -1.453125 2.929688 -1.25 2.828125 -1.0625 C 2.722656 -0.882812 2.585938 -0.734375 2.421875 -0.609375 C 2.253906 -0.484375 2.046875 -0.390625 1.796875 -0.328125 C 1.566406 -0.273438 1.351562 -0.265625 1.15625 -0.296875 C 0.957031 -0.335938 0.773438 -0.410156 0.609375 -0.515625 C 0.453125 -0.628906 0.316406 -0.78125 0.203125 -0.96875 C 0.0859375 -1.15625 0 -1.382812 -0.0625 -1.65625 C -0.113281 -1.914062 -0.128906 -2.15625 -0.109375 -2.375 C -0.0859375 -2.59375 -0.0234375 -2.789062 0.078125 -2.96875 C 0.191406 -3.15625 0.332031 -3.3125 0.5 -3.4375 C 0.664062 -3.5625 0.867188 -3.648438 1.109375 -3.703125 C 1.347656 -3.753906 1.566406 -3.765625 1.765625 -3.734375 C 1.960938 -3.703125 2.140625 -3.632812 2.296875 -3.53125 C 2.453125 -3.425781 2.585938 -3.273438 2.703125 -3.078125 C 2.828125 -2.890625 2.921875 -2.660156 2.984375 -2.390625 Z M 2.40625 -2.21875 C 2.363281 -2.425781 2.300781 -2.597656 2.21875 -2.734375 C 2.132812 -2.867188 2.039062 -2.976562 1.9375 -3.0625 C 1.832031 -3.15625 1.71875 -3.210938 1.59375 -3.234375 C 1.46875 -3.265625 1.332031 -3.265625 1.1875 -3.234375 C 1.03125 -3.191406 0.894531 -3.125 0.78125 -3.03125 C 0.675781 -2.9375 0.59375 -2.820312 0.53125 -2.6875 C 0.476562 -2.5625 0.453125 -2.421875 0.453125 -2.265625 C 0.460938 -2.117188 0.484375 -1.960938 0.515625 -1.796875 C 0.554688 -1.597656 0.613281 -1.429688 0.6875 -1.296875 C 0.769531 -1.160156 0.863281 -1.050781 0.96875 -0.96875 C 1.070312 -0.882812 1.1875 -0.828125 1.3125 -0.796875 C 1.4375 -0.773438 1.570312 -0.78125 1.71875 -0.8125 C 1.894531 -0.851562 2.03125 -0.921875 2.125 -1.015625 C 2.226562 -1.109375 2.304688 -1.21875 2.359375 -1.34375 C 2.421875 -1.476562 2.453125 -1.617188 2.453125 -1.765625 C 2.453125 -1.910156 2.4375 -2.0625 2.40625 -2.21875 Z M 2.40625 -2.21875 "/></g></g><g transform="translate(30.117837, 24.430916)"><g/></g><g transform="translate(33.744659, 23.624068)"><g><path d="M 2.6875 -3.984375 L 2.203125 -0.84375 C 2.171875 -0.519531 2.113281 -0.238281 2.03125 0 C 1.945312 0.226562 1.847656 0.425781 1.734375 0.59375 C 1.628906 0.757812 1.5 0.894531 1.34375 1 C 1.1875 1.101562 1 1.179688 0.78125 1.234375 C 0.726562 1.242188 0.679688 1.253906 0.640625 1.265625 C 0.597656 1.273438 0.546875 1.28125 0.484375 1.28125 L 0.375 0.78125 C 0.425781 0.769531 0.476562 0.757812 0.53125 0.75 C 0.582031 0.75 0.640625 0.742188 0.703125 0.734375 C 0.804688 0.703125 0.898438 0.660156 0.984375 0.609375 C 1.078125 0.566406 1.15625 0.5 1.21875 0.40625 C 1.28125 0.320312 1.332031 0.21875 1.375 0.09375 C 1.425781 -0.0195312 1.472656 -0.160156 1.515625 -0.328125 L -0.5 -3.28125 L 0.140625 -3.421875 L 1.421875 -1.46875 L 1.703125 -1 L 1.78125 -1.5625 L 2.0625 -3.859375 Z M 2.6875 -3.984375 "/></g></g><g transform="translate(37.371481, 22.81722)"><g><path d="M 2.59375 -0.578125 L 2.484375 -1.015625 C 2.347656 -0.796875 2.195312 -0.625 2.03125 -0.5 C 1.863281 -0.382812 1.6875 -0.304688 1.5 -0.265625 C 1.300781 -0.222656 1.132812 -0.210938 1 -0.234375 C 0.863281 -0.253906 0.738281 -0.296875 0.625 -0.359375 C 0.519531 -0.421875 0.429688 -0.503906 0.359375 -0.609375 C 0.296875 -0.710938 0.253906 -0.832031 0.234375 -0.96875 C 0.160156 -1.289062 0.222656 -1.570312 0.421875 -1.8125 C 0.628906 -2.050781 0.96875 -2.21875 1.4375 -2.3125 L 2.109375 -2.46875 L 2.046875 -2.75 C 2.003906 -2.9375 1.910156 -3.078125 1.765625 -3.171875 C 1.617188 -3.265625 1.414062 -3.28125 1.15625 -3.21875 C 0.976562 -3.175781 0.800781 -3.113281 0.625 -3.03125 C 0.457031 -2.957031 0.289062 -2.859375 0.125 -2.734375 L 0.015625 -3.25 C 0.078125 -3.289062 0.144531 -3.332031 0.21875 -3.375 C 0.300781 -3.414062 0.390625 -3.457031 0.484375 -3.5 C 0.585938 -3.539062 0.6875 -3.578125 0.78125 -3.609375 C 0.882812 -3.648438 0.988281 -3.679688 1.09375 -3.703125 C 1.300781 -3.742188 1.484375 -3.757812 1.640625 -3.75 C 1.804688 -3.75 1.953125 -3.710938 2.078125 -3.640625 C 2.210938 -3.578125 2.320312 -3.484375 2.40625 -3.359375 C 2.488281 -3.242188 2.550781 -3.097656 2.59375 -2.921875 L 3.09375 -0.6875 Z M 2.203125 -2.046875 L 1.484375 -1.890625 C 1.347656 -1.859375 1.234375 -1.816406 1.140625 -1.765625 C 1.046875 -1.710938 0.96875 -1.648438 0.90625 -1.578125 C 0.851562 -1.515625 0.816406 -1.441406 0.796875 -1.359375 C 0.785156 -1.285156 0.789062 -1.207031 0.8125 -1.125 C 0.832031 -1.0625 0.859375 -1 0.890625 -0.9375 C 0.921875 -0.882812 0.960938 -0.835938 1.015625 -0.796875 C 1.066406 -0.765625 1.128906 -0.742188 1.203125 -0.734375 C 1.285156 -0.722656 1.378906 -0.726562 1.484375 -0.75 C 1.597656 -0.78125 1.726562 -0.851562 1.875 -0.96875 C 2.03125 -1.082031 2.179688 -1.25 2.328125 -1.46875 Z M 2.203125 -2.046875 "/></g></g><g transform="translate(40.998303, 22.010371)"><g/></g><g transform="translate(44.625126, 21.203523)"><g><path d="M 0 -1.640625 C -0.0625 -1.910156 -0.078125 -2.160156 -0.046875 -2.390625 C -0.015625 -2.617188 0.0507812 -2.820312 0.15625 -3 C 0.257812 -3.175781 0.398438 -3.320312 0.578125 -3.4375 C 0.753906 -3.5625 0.960938 -3.65625 1.203125 -3.71875 C 1.304688 -3.738281 1.410156 -3.75 1.515625 -3.75 C 1.617188 -3.757812 1.71875 -3.765625 1.8125 -3.765625 L 1.515625 -5.125 L 2.078125 -5.25 L 3.09375 -0.6875 L 2.59375 -0.578125 L 2.4375 -1.1875 C 2.320312 -0.925781 2.1875 -0.71875 2.03125 -0.5625 C 1.882812 -0.414062 1.707031 -0.316406 1.5 -0.265625 C 1.300781 -0.222656 1.125 -0.222656 0.96875 -0.265625 C 0.820312 -0.316406 0.679688 -0.398438 0.546875 -0.515625 C 0.421875 -0.640625 0.3125 -0.796875 0.21875 -0.984375 C 0.125 -1.171875 0.0507812 -1.390625 0 -1.640625 Z M 0.578125 -1.796875 C 0.671875 -1.398438 0.789062 -1.117188 0.9375 -0.953125 C 1.09375 -0.785156 1.28125 -0.726562 1.5 -0.78125 C 1.632812 -0.8125 1.765625 -0.90625 1.890625 -1.0625 C 2.015625 -1.226562 2.140625 -1.453125 2.265625 -1.734375 L 1.9375 -3.25 C 1.832031 -3.269531 1.722656 -3.273438 1.609375 -3.265625 C 1.492188 -3.265625 1.378906 -3.253906 1.265625 -3.234375 C 0.960938 -3.160156 0.75 -3.003906 0.625 -2.765625 C 0.507812 -2.535156 0.492188 -2.210938 0.578125 -1.796875 Z M 0.578125 -1.796875 "/></g></g><g transform="translate(48.251948, 20.396675)"><g><path d="M 2.59375 -0.578125 L 2.484375 -1.015625 C 2.347656 -0.796875 2.195312 -0.625 2.03125 -0.5 C 1.863281 -0.382812 1.6875 -0.304688 1.5 -0.265625 C 1.300781 -0.222656 1.132812 -0.210938 1 -0.234375 C 0.863281 -0.253906 0.738281 -0.296875 0.625 -0.359375 C 0.519531 -0.421875 0.429688 -0.503906 0.359375 -0.609375 C 0.296875 -0.710938 0.253906 -0.832031 0.234375 -0.96875 C 0.160156 -1.289062 0.222656 -1.570312 0.421875 -1.8125 C 0.628906 -2.050781 0.96875 -2.21875 1.4375 -2.3125 L 2.109375 -2.46875 L 2.046875 -2.75 C 2.003906 -2.9375 1.910156 -3.078125 1.765625 -3.171875 C 1.617188 -3.265625 1.414062 -3.28125 1.15625 -3.21875 C 0.976562 -3.175781 0.800781 -3.113281 0.625 -3.03125 C 0.457031 -2.957031 0.289062 -2.859375 0.125 -2.734375 L 0.015625 -3.25 C 0.078125 -3.289062 0.144531 -3.332031 0.21875 -3.375 C 0.300781 -3.414062 0.390625 -3.457031 0.484375 -3.5 C 0.585938 -3.539062 0.6875 -3.578125 0.78125 -3.609375 C 0.882812 -3.648438 0.988281 -3.679688 1.09375 -3.703125 C 1.300781 -3.742188 1.484375 -3.757812 1.640625 -3.75 C 1.804688 -3.75 1.953125 -3.710938 2.078125 -3.640625 C 2.210938 -3.578125 2.320312 -3.484375 2.40625 -3.359375 C 2.488281 -3.242188 2.550781 -3.097656 2.59375 -2.921875 L 3.09375 -0.6875 Z M 2.203125 -2.046875 L 1.484375 -1.890625 C 1.347656 -1.859375 1.234375 -1.816406 1.140625 -1.765625 C 1.046875 -1.710938 0.96875 -1.648438 0.90625 -1.578125 C 0.851562 -1.515625 0.816406 -1.441406 0.796875 -1.359375 C 0.785156 -1.285156 0.789062 -1.207031 0.8125 -1.125 C 0.832031 -1.0625 0.859375 -1 0.890625 -0.9375 C 0.921875 -0.882812 0.960938 -0.835938 1.015625 -0.796875 C 1.066406 -0.765625 1.128906 -0.742188 1.203125 -0.734375 C 1.285156 -0.722656 1.378906 -0.726562 1.484375 -0.75 C 1.597656 -0.78125 1.726562 -0.851562 1.875 -0.96875 C 2.03125 -1.082031 2.179688 -1.25 2.328125 -1.46875 Z M 2.203125 -2.046875 "/></g></g><g transform="translate(51.87877, 19.589827)"><g><path d="M 2.90625 -2.40625 C 2.96875 -2.144531 2.984375 -1.898438 2.953125 -1.671875 C 2.929688 -1.441406 2.867188 -1.238281 2.765625 -1.0625 C 2.660156 -0.882812 2.519531 -0.726562 2.34375 -0.59375 C 2.164062 -0.46875 1.953125 -0.378906 1.703125 -0.328125 C 1.515625 -0.285156 1.316406 -0.265625 1.109375 -0.265625 C 0.898438 -0.265625 0.6875 -0.273438 0.46875 -0.296875 L -0.5 -4.671875 L 0.0625 -4.796875 L 0.34375 -3.546875 L 0.453125 -2.9375 C 0.566406 -3.1875 0.703125 -3.375 0.859375 -3.5 C 1.023438 -3.632812 1.21875 -3.726562 1.4375 -3.78125 C 1.613281 -3.820312 1.78125 -3.816406 1.9375 -3.765625 C 2.09375 -3.722656 2.234375 -3.640625 2.359375 -3.515625 C 2.484375 -3.398438 2.59375 -3.25 2.6875 -3.0625 C 2.78125 -2.875 2.851562 -2.65625 2.90625 -2.40625 Z M 2.359375 -2.25 C 2.316406 -2.425781 2.265625 -2.582031 2.203125 -2.71875 C 2.148438 -2.851562 2.082031 -2.960938 2 -3.046875 C 1.914062 -3.140625 1.828125 -3.207031 1.734375 -3.25 C 1.648438 -3.289062 1.546875 -3.296875 1.421875 -3.265625 C 1.347656 -3.253906 1.273438 -3.226562 1.203125 -3.1875 C 1.140625 -3.15625 1.070312 -3.097656 1 -3.015625 C 0.9375 -2.941406 0.867188 -2.847656 0.796875 -2.734375 C 0.734375 -2.628906 0.671875 -2.503906 0.609375 -2.359375 L 0.953125 -0.78125 C 1.066406 -0.769531 1.1875 -0.765625 1.3125 -0.765625 C 1.4375 -0.765625 1.546875 -0.773438 1.640625 -0.796875 C 1.773438 -0.828125 1.894531 -0.875 2 -0.9375 C 2.101562 -1.007812 2.1875 -1.101562 2.25 -1.21875 C 2.320312 -1.332031 2.367188 -1.472656 2.390625 -1.640625 C 2.421875 -1.816406 2.410156 -2.019531 2.359375 -2.25 Z M 2.359375 -2.25 "/></g></g><g transform="translate(55.505593, 18.782978)"><g><path d="M 2.59375 -0.578125 L 2.484375 -1.015625 C 2.347656 -0.796875 2.195312 -0.625 2.03125 -0.5 C 1.863281 -0.382812 1.6875 -0.304688 1.5 -0.265625 C 1.300781 -0.222656 1.132812 -0.210938 1 -0.234375 C 0.863281 -0.253906 0.738281 -0.296875 0.625 -0.359375 C 0.519531 -0.421875 0.429688 -0.503906 0.359375 -0.609375 C 0.296875 -0.710938 0.253906 -0.832031 0.234375 -0.96875 C 0.160156 -1.289062 0.222656 -1.570312 0.421875 -1.8125 C 0.628906 -2.050781 0.96875 -2.21875 1.4375 -2.3125 L 2.109375 -2.46875 L 2.046875 -2.75 C 2.003906 -2.9375 1.910156 -3.078125 1.765625 -3.171875 C 1.617188 -3.265625 1.414062 -3.28125 1.15625 -3.21875 C 0.976562 -3.175781 0.800781 -3.113281 0.625 -3.03125 C 0.457031 -2.957031 0.289062 -2.859375 0.125 -2.734375 L 0.015625 -3.25 C 0.078125 -3.289062 0.144531 -3.332031 0.21875 -3.375 C 0.300781 -3.414062 0.390625 -3.457031 0.484375 -3.5 C 0.585938 -3.539062 0.6875 -3.578125 0.78125 -3.609375 C 0.882812 -3.648438 0.988281 -3.679688 1.09375 -3.703125 C 1.300781 -3.742188 1.484375 -3.757812 1.640625 -3.75 C 1.804688 -3.75 1.953125 -3.710938 2.078125 -3.640625 C 2.210938 -3.578125 2.320312 -3.484375 2.40625 -3.359375 C 2.488281 -3.242188 2.550781 -3.097656 2.59375 -2.921875 L 3.09375 -0.6875 Z M 2.203125 -2.046875 L 1.484375 -1.890625 C 1.347656 -1.859375 1.234375 -1.816406 1.140625 -1.765625 C 1.046875 -1.710938 0.96875 -1.648438 0.90625 -1.578125 C 0.851562 -1.515625 0.816406 -1.441406 0.796875 -1.359375 C 0.785156 -1.285156 0.789062 -1.207031 0.8125 -1.125 C 0.832031 -1.0625 0.859375 -1 0.890625 -0.9375 C 0.921875 -0.882812 0.960938 -0.835938 1.015625 -0.796875 C 1.066406 -0.765625 1.128906 -0.742188 1.203125 -0.734375 C 1.285156 -0.722656 1.378906 -0.726562 1.484375 -0.75 C 1.597656 -0.78125 1.726562 -0.851562 1.875 -0.96875 C 2.03125 -1.082031 2.179688 -1.25 2.328125 -1.46875 Z M 2.203125 -2.046875 "/></g></g><g transform="translate(59.132415, 17.97613)"><g/></g><g transform="translate(62.759237, 17.169282)"><g><path d="M 2.875 -1.578125 C 2.90625 -1.460938 2.910156 -1.351562 2.890625 -1.25 C 2.867188 -1.144531 2.832031 -1.050781 2.78125 -0.96875 C 2.738281 -0.882812 2.675781 -0.804688 2.59375 -0.734375 C 2.519531 -0.671875 2.4375 -0.609375 2.34375 -0.546875 C 2.25 -0.492188 2.148438 -0.445312 2.046875 -0.40625 C 1.941406 -0.375 1.84375 -0.347656 1.75 -0.328125 C 1.53125 -0.273438 1.328125 -0.238281 1.140625 -0.21875 C 0.953125 -0.195312 0.757812 -0.1875 0.5625 -0.1875 L 0.453125 -0.703125 C 0.660156 -0.691406 0.859375 -0.691406 1.046875 -0.703125 C 1.242188 -0.710938 1.429688 -0.738281 1.609375 -0.78125 C 1.878906 -0.84375 2.070312 -0.925781 2.1875 -1.03125 C 2.300781 -1.144531 2.34375 -1.269531 2.3125 -1.40625 C 2.300781 -1.46875 2.28125 -1.515625 2.25 -1.546875 C 2.21875 -1.585938 2.164062 -1.617188 2.09375 -1.640625 C 2.03125 -1.671875 1.9375 -1.695312 1.8125 -1.71875 C 1.695312 -1.75 1.535156 -1.769531 1.328125 -1.78125 C 1.171875 -1.789062 1.023438 -1.804688 0.890625 -1.828125 C 0.753906 -1.859375 0.632812 -1.898438 0.53125 -1.953125 C 0.425781 -2.003906 0.332031 -2.078125 0.25 -2.171875 C 0.175781 -2.265625 0.125 -2.378906 0.09375 -2.515625 C 0.0703125 -2.609375 0.0703125 -2.710938 0.09375 -2.828125 C 0.113281 -2.953125 0.160156 -3.066406 0.234375 -3.171875 C 0.316406 -3.285156 0.4375 -3.390625 0.59375 -3.484375 C 0.757812 -3.585938 0.972656 -3.671875 1.234375 -3.734375 C 1.359375 -3.765625 1.5 -3.785156 1.65625 -3.796875 C 1.8125 -3.816406 1.976562 -3.832031 2.15625 -3.84375 L 2.28125 -3.34375 C 2.09375 -3.34375 1.914062 -3.332031 1.75 -3.3125 C 1.59375 -3.300781 1.453125 -3.285156 1.328125 -3.265625 C 1.179688 -3.234375 1.066406 -3.195312 0.984375 -3.15625 C 0.898438 -3.113281 0.828125 -3.066406 0.765625 -3.015625 C 0.710938 -2.960938 0.675781 -2.90625 0.65625 -2.84375 C 0.644531 -2.789062 0.648438 -2.734375 0.671875 -2.671875 C 0.679688 -2.609375 0.703125 -2.554688 0.734375 -2.515625 C 0.765625 -2.484375 0.816406 -2.453125 0.890625 -2.421875 C 0.960938 -2.390625 1.054688 -2.363281 1.171875 -2.34375 C 1.296875 -2.320312 1.453125 -2.304688 1.640625 -2.296875 C 1.835938 -2.273438 2.007812 -2.25 2.15625 -2.21875 C 2.3125 -2.195312 2.4375 -2.15625 2.53125 -2.09375 C 2.625 -2.03125 2.695312 -1.957031 2.75 -1.875 C 2.8125 -1.789062 2.851562 -1.691406 2.875 -1.578125 Z M 2.875 -1.578125 "/></g></g><g transform="translate(66.38606, 16.362434)"><g><path d="M 2.984375 -2.390625 C 3.035156 -2.140625 3.046875 -1.898438 3.015625 -1.671875 C 2.992188 -1.453125 2.929688 -1.25 2.828125 -1.0625 C 2.722656 -0.882812 2.585938 -0.734375 2.421875 -0.609375 C 2.253906 -0.484375 2.046875 -0.390625 1.796875 -0.328125 C 1.566406 -0.273438 1.351562 -0.265625 1.15625 -0.296875 C 0.957031 -0.335938 0.773438 -0.410156 0.609375 -0.515625 C 0.453125 -0.628906 0.316406 -0.78125 0.203125 -0.96875 C 0.0859375 -1.15625 0 -1.382812 -0.0625 -1.65625 C -0.113281 -1.914062 -0.128906 -2.15625 -0.109375 -2.375 C -0.0859375 -2.59375 -0.0234375 -2.789062 0.078125 -2.96875 C 0.191406 -3.15625 0.332031 -3.3125 0.5 -3.4375 C 0.664062 -3.5625 0.867188 -3.648438 1.109375 -3.703125 C 1.347656 -3.753906 1.566406 -3.765625 1.765625 -3.734375 C 1.960938 -3.703125 2.140625 -3.632812 2.296875 -3.53125 C 2.453125 -3.425781 2.585938 -3.273438 2.703125 -3.078125 C 2.828125 -2.890625 2.921875 -2.660156 2.984375 -2.390625 Z M 2.40625 -2.21875 C 2.363281 -2.425781 2.300781 -2.597656 2.21875 -2.734375 C 2.132812 -2.867188 2.039062 -2.976562 1.9375 -3.0625 C 1.832031 -3.15625 1.71875 -3.210938 1.59375 -3.234375 C 1.46875 -3.265625 1.332031 -3.265625 1.1875 -3.234375 C 1.03125 -3.191406 0.894531 -3.125 0.78125 -3.03125 C 0.675781 -2.9375 0.59375 -2.820312 0.53125 -2.6875 C 0.476562 -2.5625 0.453125 -2.421875 0.453125 -2.265625 C 0.460938 -2.117188 0.484375 -1.960938 0.515625 -1.796875 C 0.554688 -1.597656 0.613281 -1.429688 0.6875 -1.296875 C 0.769531 -1.160156 0.863281 -1.050781 0.96875 -0.96875 C 1.070312 -0.882812 1.1875 -0.828125 1.3125 -0.796875 C 1.4375 -0.773438 1.570312 -0.78125 1.71875 -0.8125 C 1.894531 -0.851562 2.03125 -0.921875 2.125 -1.015625 C 2.226562 -1.109375 2.304688 -1.21875 2.359375 -1.34375 C 2.421875 -1.476562 2.453125 -1.617188 2.453125 -1.765625 C 2.453125 -1.910156 2.4375 -2.0625 2.40625 -2.21875 Z M 2.40625 -2.21875 "/></g></g><g transform="translate(70.012882, 15.555585)"><g><path d="M 2.90625 -2.40625 C 2.96875 -2.125 2.984375 -1.863281 2.953125 -1.625 C 2.921875 -1.382812 2.847656 -1.175781 2.734375 -1 C 2.628906 -0.832031 2.488281 -0.691406 2.3125 -0.578125 C 2.132812 -0.460938 1.929688 -0.378906 1.703125 -0.328125 C 1.609375 -0.304688 1.503906 -0.289062 1.390625 -0.28125 C 1.285156 -0.28125 1.179688 -0.273438 1.078125 -0.265625 L 1.375 1.09375 L 0.8125 1.21875 L -0.203125 -3.34375 L 0.296875 -3.46875 L 0.453125 -2.9375 C 0.566406 -3.1875 0.703125 -3.375 0.859375 -3.5 C 1.023438 -3.632812 1.21875 -3.726562 1.4375 -3.78125 C 1.613281 -3.820312 1.78125 -3.816406 1.9375 -3.765625 C 2.09375 -3.722656 2.234375 -3.640625 2.359375 -3.515625 C 2.484375 -3.398438 2.59375 -3.25 2.6875 -3.0625 C 2.78125 -2.875 2.851562 -2.65625 2.90625 -2.40625 Z M 2.359375 -2.25 C 2.316406 -2.425781 2.265625 -2.582031 2.203125 -2.71875 C 2.148438 -2.851562 2.082031 -2.960938 2 -3.046875 C 1.914062 -3.140625 1.828125 -3.207031 1.734375 -3.25 C 1.648438 -3.289062 1.546875 -3.296875 1.421875 -3.265625 C 1.347656 -3.253906 1.273438 -3.226562 1.203125 -3.1875 C 1.140625 -3.15625 1.070312 -3.097656 1 -3.015625 C 0.9375 -2.941406 0.867188 -2.847656 0.796875 -2.734375 C 0.734375 -2.628906 0.671875 -2.503906 0.609375 -2.359375 L 0.953125 -0.78125 C 1.066406 -0.769531 1.179688 -0.757812 1.296875 -0.75 C 1.421875 -0.75 1.535156 -0.765625 1.640625 -0.796875 C 1.953125 -0.859375 2.171875 -1.015625 2.296875 -1.265625 C 2.421875 -1.515625 2.441406 -1.84375 2.359375 -2.25 Z M 2.359375 -2.25 "/></g></g><g transform="translate(73.639704, 14.748737)"><g><path d="M 2.984375 -2.390625 C 3.035156 -2.140625 3.046875 -1.898438 3.015625 -1.671875 C 2.992188 -1.453125 2.929688 -1.25 2.828125 -1.0625 C 2.722656 -0.882812 2.585938 -0.734375 2.421875 -0.609375 C 2.253906 -0.484375 2.046875 -0.390625 1.796875 -0.328125 C 1.566406 -0.273438 1.351562 -0.265625 1.15625 -0.296875 C 0.957031 -0.335938 0.773438 -0.410156 0.609375 -0.515625 C 0.453125 -0.628906 0.316406 -0.78125 0.203125 -0.96875 C 0.0859375 -1.15625 0 -1.382812 -0.0625 -1.65625 C -0.113281 -1.914062 -0.128906 -2.15625 -0.109375 -2.375 C -0.0859375 -2.59375 -0.0234375 -2.789062 0.078125 -2.96875 C 0.191406 -3.15625 0.332031 -3.3125 0.5 -3.4375 C 0.664062 -3.5625 0.867188 -3.648438 1.109375 -3.703125 C 1.347656 -3.753906 1.566406 -3.765625 1.765625 -3.734375 C 1.960938 -3.703125 2.140625 -3.632812 2.296875 -3.53125 C 2.453125 -3.425781 2.585938 -3.273438 2.703125 -3.078125 C 2.828125 -2.890625 2.921875 -2.660156 2.984375 -2.390625 Z M 2.40625 -2.21875 C 2.363281 -2.425781 2.300781 -2.597656 2.21875 -2.734375 C 2.132812 -2.867188 2.039062 -2.976562 1.9375 -3.0625 C 1.832031 -3.15625 1.71875 -3.210938 1.59375 -3.234375 C 1.46875 -3.265625 1.332031 -3.265625 1.1875 -3.234375 C 1.03125 -3.191406 0.894531 -3.125 0.78125 -3.03125 C 0.675781 -2.9375 0.59375 -2.820312 0.53125 -2.6875 C 0.476562 -2.5625 0.453125 -2.421875 0.453125 -2.265625 C 0.460938 -2.117188 0.484375 -1.960938 0.515625 -1.796875 C 0.554688 -1.597656 0.613281 -1.429688 0.6875 -1.296875 C 0.769531 -1.160156 0.863281 -1.050781 0.96875 -0.96875 C 1.070312 -0.882812 1.1875 -0.828125 1.3125 -0.796875 C 1.4375 -0.773438 1.570312 -0.78125 1.71875 -0.8125 C 1.894531 -0.851562 2.03125 -0.921875 2.125 -1.015625 C 2.226562 -1.109375 2.304688 -1.21875 2.359375 -1.34375 C 2.421875 -1.476562 2.453125 -1.617188 2.453125 -1.765625 C 2.453125 -1.910156 2.4375 -2.0625 2.40625 -2.21875 Z M 2.40625 -2.21875 "/></g></g><g transform="translate(77.266526, 13.941889)"><g><path d="M -0.078125 -3.375 L 0.4375 -3.5 L 0.578125 -2.90625 C 0.722656 -3.175781 0.878906 -3.382812 1.046875 -3.53125 C 1.210938 -3.675781 1.382812 -3.769531 1.5625 -3.8125 C 1.90625 -3.882812 2.1875 -3.828125 2.40625 -3.640625 C 2.625 -3.460938 2.78125 -3.160156 2.875 -2.734375 L 2.3125 -2.609375 C 2.238281 -2.890625 2.144531 -3.082031 2.03125 -3.1875 C 1.914062 -3.300781 1.773438 -3.34375 1.609375 -3.3125 C 1.523438 -3.289062 1.445312 -3.257812 1.375 -3.21875 C 1.300781 -3.175781 1.234375 -3.113281 1.171875 -3.03125 C 1.109375 -2.945312 1.039062 -2.847656 0.96875 -2.734375 C 0.90625 -2.628906 0.832031 -2.5 0.75 -2.34375 L 1.21875 -0.265625 L 0.640625 -0.140625 Z M -0.078125 -3.375 "/></g></g><g transform="translate(80.893349, 13.135041)"><g><path d="M 3.109375 -0.75 C 2.984375 -0.6875 2.859375 -0.628906 2.734375 -0.578125 C 2.609375 -0.535156 2.472656 -0.5 2.328125 -0.46875 C 1.921875 -0.375 1.597656 -0.394531 1.359375 -0.53125 C 1.117188 -0.675781 0.957031 -0.941406 0.875 -1.328125 L 0.5 -3.015625 L -0.40625 -2.8125 L -0.515625 -3.28125 L 0.390625 -3.484375 L 0.1875 -4.390625 L 0.71875 -4.640625 L 0.953125 -3.609375 L 2.40625 -3.9375 L 2.515625 -3.46875 L 1.0625 -3.140625 L 1.421875 -1.5 C 1.472656 -1.269531 1.570312 -1.109375 1.71875 -1.015625 C 1.875 -0.921875 2.070312 -0.898438 2.3125 -0.953125 C 2.414062 -0.972656 2.523438 -1.003906 2.640625 -1.046875 C 2.753906 -1.097656 2.875 -1.160156 3 -1.234375 Z M 3.109375 -0.75 "/></g></g><g transform="translate(84.520171, 12.328192)"><g><path d="M 2.859375 -2.5 C 2.867188 -2.425781 2.878906 -2.363281 2.890625 -2.3125 C 2.910156 -2.257812 2.921875 -2.207031 2.921875 -2.15625 L 0.640625 -1.65625 C 0.710938 -1.332031 0.863281 -1.097656 1.09375 -0.953125 C 1.320312 -0.816406 1.609375 -0.785156 1.953125 -0.859375 C 2.046875 -0.878906 2.140625 -0.898438 2.234375 -0.921875 C 2.328125 -0.953125 2.414062 -0.984375 2.5 -1.015625 C 2.582031 -1.054688 2.660156 -1.09375 2.734375 -1.125 C 2.816406 -1.15625 2.890625 -1.191406 2.953125 -1.234375 L 3.0625 -0.78125 C 2.925781 -0.695312 2.757812 -0.617188 2.5625 -0.546875 C 2.375 -0.472656 2.179688 -0.414062 1.984375 -0.375 C 1.703125 -0.3125 1.453125 -0.296875 1.234375 -0.328125 C 1.023438 -0.359375 0.835938 -0.429688 0.671875 -0.546875 C 0.515625 -0.660156 0.378906 -0.8125 0.265625 -1 C 0.160156 -1.195312 0.078125 -1.425781 0.015625 -1.6875 C -0.0351562 -1.914062 -0.046875 -2.140625 -0.015625 -2.359375 C 0.00390625 -2.578125 0.0546875 -2.773438 0.140625 -2.953125 C 0.234375 -3.128906 0.359375 -3.285156 0.515625 -3.421875 C 0.679688 -3.554688 0.878906 -3.648438 1.109375 -3.703125 C 1.335938 -3.753906 1.546875 -3.765625 1.734375 -3.734375 C 1.929688 -3.703125 2.101562 -3.632812 2.25 -3.53125 C 2.394531 -3.4375 2.519531 -3.300781 2.625 -3.125 C 2.726562 -2.945312 2.804688 -2.738281 2.859375 -2.5 Z M 2.25 -2.46875 C 2.21875 -2.613281 2.171875 -2.738281 2.109375 -2.84375 C 2.054688 -2.957031 1.984375 -3.050781 1.890625 -3.125 C 1.804688 -3.195312 1.703125 -3.242188 1.578125 -3.265625 C 1.453125 -3.296875 1.316406 -3.296875 1.171875 -3.265625 C 1.046875 -3.234375 0.941406 -3.179688 0.859375 -3.109375 C 0.785156 -3.035156 0.71875 -2.945312 0.65625 -2.84375 C 0.59375 -2.738281 0.550781 -2.625 0.53125 -2.5 C 0.507812 -2.375 0.507812 -2.238281 0.53125 -2.09375 Z M 2.25 -2.46875 "/></g></g></g><g fill="#535353" fill-opacity="1"><g transform="translate(88.146995, 11.521344)"><g/></g></g><g fill="#535353" fill-opacity="1"><g transform="translate(15.084435, 33.833011)"><g><path d="M 3.109375 -0.75 C 2.984375 -0.6875 2.859375 -0.628906 2.734375 -0.578125 C 2.609375 -0.535156 2.472656 -0.5 2.328125 -0.46875 C 1.921875 -0.375 1.597656 -0.394531 1.359375 -0.53125 C 1.117188 -0.675781 0.957031 -0.941406 0.875 -1.328125 L 0.5 -3.015625 L -0.40625 -2.8125 L -0.515625 -3.28125 L 0.390625 -3.484375 L 0.1875 -4.390625 L 0.71875 -4.640625 L 0.953125 -3.609375 L 2.40625 -3.9375 L 2.515625 -3.46875 L 1.0625 -3.140625 L 1.421875 -1.5 C 1.472656 -1.269531 1.570312 -1.109375 1.71875 -1.015625 C 1.875 -0.921875 2.070312 -0.898438 2.3125 -0.953125 C 2.414062 -0.972656 2.523438 -1.003906 2.640625 -1.046875 C 2.753906 -1.097656 2.875 -1.160156 3 -1.234375 Z M 3.109375 -0.75 "/></g></g><g transform="translate(18.711258, 33.026163)"><g><path d="M 2.859375 -2.5 C 2.867188 -2.425781 2.878906 -2.363281 2.890625 -2.3125 C 2.910156 -2.257812 2.921875 -2.207031 2.921875 -2.15625 L 0.640625 -1.65625 C 0.710938 -1.332031 0.863281 -1.097656 1.09375 -0.953125 C 1.320312 -0.816406 1.609375 -0.785156 1.953125 -0.859375 C 2.046875 -0.878906 2.140625 -0.898438 2.234375 -0.921875 C 2.328125 -0.953125 2.414062 -0.984375 2.5 -1.015625 C 2.582031 -1.054688 2.660156 -1.09375 2.734375 -1.125 C 2.816406 -1.15625 2.890625 -1.191406 2.953125 -1.234375 L 3.0625 -0.78125 C 2.925781 -0.695312 2.757812 -0.617188 2.5625 -0.546875 C 2.375 -0.472656 2.179688 -0.414062 1.984375 -0.375 C 1.703125 -0.3125 1.453125 -0.296875 1.234375 -0.328125 C 1.023438 -0.359375 0.835938 -0.429688 0.671875 -0.546875 C 0.515625 -0.660156 0.378906 -0.8125 0.265625 -1 C 0.160156 -1.195312 0.078125 -1.425781 0.015625 -1.6875 C -0.0351562 -1.914062 -0.046875 -2.140625 -0.015625 -2.359375 C 0.00390625 -2.578125 0.0546875 -2.773438 0.140625 -2.953125 C 0.234375 -3.128906 0.359375 -3.285156 0.515625 -3.421875 C 0.679688 -3.554688 0.878906 -3.648438 1.109375 -3.703125 C 1.335938 -3.753906 1.546875 -3.765625 1.734375 -3.734375 C 1.929688 -3.703125 2.101562 -3.632812 2.25 -3.53125 C 2.394531 -3.4375 2.519531 -3.300781 2.625 -3.125 C 2.726562 -2.945312 2.804688 -2.738281 2.859375 -2.5 Z M 2.25 -2.46875 C 2.21875 -2.613281 2.171875 -2.738281 2.109375 -2.84375 C 2.054688 -2.957031 1.984375 -3.050781 1.890625 -3.125 C 1.804688 -3.195312 1.703125 -3.242188 1.578125 -3.265625 C 1.453125 -3.296875 1.316406 -3.296875 1.171875 -3.265625 C 1.046875 -3.234375 0.941406 -3.179688 0.859375 -3.109375 C 0.785156 -3.035156 0.71875 -2.945312 0.65625 -2.84375 C 0.59375 -2.738281 0.550781 -2.625 0.53125 -2.5 C 0.507812 -2.375 0.507812 -2.238281 0.53125 -2.09375 Z M 2.046875 -5.25 L 1.203125 -4.234375 L 0.640625 -4.109375 L 1.234375 -5.0625 Z M -0.71875 -3.234375 Z M -0.71875 -3.234375 "/></g></g><g transform="translate(22.33808, 32.219314)"><g><path d="M 3 -0.796875 C 2.875 -0.703125 2.734375 -0.625 2.578125 -0.5625 C 2.429688 -0.5 2.28125 -0.453125 2.125 -0.421875 C 1.613281 -0.304688 1.1875 -0.359375 0.84375 -0.578125 C 0.5 -0.796875 0.265625 -1.171875 0.140625 -1.703125 C 0.0859375 -1.953125 0.078125 -2.191406 0.109375 -2.421875 C 0.148438 -2.648438 0.222656 -2.851562 0.328125 -3.03125 C 0.441406 -3.207031 0.585938 -3.359375 0.765625 -3.484375 C 0.953125 -3.609375 1.164062 -3.695312 1.40625 -3.75 C 1.570312 -3.789062 1.734375 -3.816406 1.890625 -3.828125 C 2.046875 -3.835938 2.191406 -3.828125 2.328125 -3.796875 L 2.453125 -3.265625 C 2.304688 -3.304688 2.148438 -3.328125 1.984375 -3.328125 C 1.828125 -3.335938 1.675781 -3.328125 1.53125 -3.296875 C 1.382812 -3.265625 1.253906 -3.203125 1.140625 -3.109375 C 1.023438 -3.023438 0.929688 -2.921875 0.859375 -2.796875 C 0.785156 -2.671875 0.734375 -2.53125 0.703125 -2.375 C 0.679688 -2.21875 0.691406 -2.039062 0.734375 -1.84375 C 0.816406 -1.457031 0.972656 -1.1875 1.203125 -1.03125 C 1.441406 -0.882812 1.738281 -0.847656 2.09375 -0.921875 C 2.238281 -0.953125 2.378906 -1 2.515625 -1.0625 C 2.648438 -1.125 2.773438 -1.207031 2.890625 -1.3125 Z M 3 -0.796875 "/></g></g><g transform="translate(25.964902, 31.412466)"><g><path d="M -0.203125 -3.34375 L 0.296875 -3.46875 L 0.421875 -2.953125 C 0.492188 -3.078125 0.566406 -3.1875 0.640625 -3.28125 C 0.722656 -3.382812 0.796875 -3.460938 0.859375 -3.515625 C 0.929688 -3.578125 1.007812 -3.628906 1.09375 -3.671875 C 1.1875 -3.710938 1.28125 -3.742188 1.375 -3.765625 C 1.707031 -3.835938 1.976562 -3.789062 2.1875 -3.625 C 2.40625 -3.46875 2.554688 -3.191406 2.640625 -2.796875 L 3.109375 -0.6875 L 2.5625 -0.5625 L 2.09375 -2.640625 C 2.039062 -2.878906 1.953125 -3.050781 1.828125 -3.15625 C 1.703125 -3.257812 1.550781 -3.289062 1.375 -3.25 C 1.300781 -3.238281 1.234375 -3.210938 1.171875 -3.171875 C 1.109375 -3.140625 1.046875 -3.085938 0.984375 -3.015625 C 0.929688 -2.953125 0.875 -2.867188 0.8125 -2.765625 C 0.75 -2.660156 0.675781 -2.535156 0.59375 -2.390625 L 1.078125 -0.234375 L 0.515625 -0.109375 Z M -0.203125 -3.34375 "/></g></g><g transform="translate(29.591725, 30.605618)"><g><path d="M 0.984375 -3.140625 L 0.03125 -2.921875 L -0.0625 -3.375 L 1.46875 -3.71875 L 2.078125 -0.953125 L 3.046875 -1.171875 L 3.15625 -0.703125 L 0.546875 -0.125 L 0.4375 -0.59375 L 1.5 -0.828125 Z M 0.796875 -5 C 0.859375 -5.007812 0.921875 -5.007812 0.984375 -5 C 1.046875 -5 1.097656 -4.976562 1.140625 -4.9375 C 1.191406 -4.90625 1.234375 -4.863281 1.265625 -4.8125 C 1.296875 -4.757812 1.316406 -4.707031 1.328125 -4.65625 C 1.335938 -4.59375 1.335938 -4.53125 1.328125 -4.46875 C 1.328125 -4.414062 1.3125 -4.363281 1.28125 -4.3125 C 1.25 -4.269531 1.207031 -4.226562 1.15625 -4.1875 C 1.101562 -4.144531 1.046875 -4.117188 0.984375 -4.109375 C 0.921875 -4.097656 0.859375 -4.097656 0.796875 -4.109375 C 0.742188 -4.117188 0.691406 -4.140625 0.640625 -4.171875 C 0.597656 -4.210938 0.554688 -4.253906 0.515625 -4.296875 C 0.484375 -4.347656 0.460938 -4.40625 0.453125 -4.46875 C 0.441406 -4.519531 0.441406 -4.578125 0.453125 -4.640625 C 0.460938 -4.703125 0.484375 -4.753906 0.515625 -4.796875 C 0.546875 -4.847656 0.582031 -4.890625 0.625 -4.921875 C 0.675781 -4.960938 0.734375 -4.988281 0.796875 -5 Z M 0.796875 -5 "/></g></g><g transform="translate(33.218547, 29.79877)"><g><path d="M 3 -0.796875 C 2.875 -0.703125 2.734375 -0.625 2.578125 -0.5625 C 2.429688 -0.5 2.28125 -0.453125 2.125 -0.421875 C 1.613281 -0.304688 1.1875 -0.359375 0.84375 -0.578125 C 0.5 -0.796875 0.265625 -1.171875 0.140625 -1.703125 C 0.0859375 -1.953125 0.078125 -2.191406 0.109375 -2.421875 C 0.148438 -2.648438 0.222656 -2.851562 0.328125 -3.03125 C 0.441406 -3.207031 0.585938 -3.359375 0.765625 -3.484375 C 0.953125 -3.609375 1.164062 -3.695312 1.40625 -3.75 C 1.570312 -3.789062 1.734375 -3.816406 1.890625 -3.828125 C 2.046875 -3.835938 2.191406 -3.828125 2.328125 -3.796875 L 2.453125 -3.265625 C 2.304688 -3.304688 2.148438 -3.328125 1.984375 -3.328125 C 1.828125 -3.335938 1.675781 -3.328125 1.53125 -3.296875 C 1.382812 -3.265625 1.253906 -3.203125 1.140625 -3.109375 C 1.023438 -3.023438 0.929688 -2.921875 0.859375 -2.796875 C 0.785156 -2.671875 0.734375 -2.53125 0.703125 -2.375 C 0.679688 -2.21875 0.691406 -2.039062 0.734375 -1.84375 C 0.816406 -1.457031 0.972656 -1.1875 1.203125 -1.03125 C 1.441406 -0.882812 1.738281 -0.847656 2.09375 -0.921875 C 2.238281 -0.953125 2.378906 -1 2.515625 -1.0625 C 2.648438 -1.125 2.773438 -1.207031 2.890625 -1.3125 Z M 3 -0.796875 "/></g></g><g transform="translate(36.845369, 28.991921)"><g><path d="M 2.984375 -2.390625 C 3.035156 -2.140625 3.046875 -1.898438 3.015625 -1.671875 C 2.992188 -1.453125 2.929688 -1.25 2.828125 -1.0625 C 2.722656 -0.882812 2.585938 -0.734375 2.421875 -0.609375 C 2.253906 -0.484375 2.046875 -0.390625 1.796875 -0.328125 C 1.566406 -0.273438 1.351562 -0.265625 1.15625 -0.296875 C 0.957031 -0.335938 0.773438 -0.410156 0.609375 -0.515625 C 0.453125 -0.628906 0.316406 -0.78125 0.203125 -0.96875 C 0.0859375 -1.15625 0 -1.382812 -0.0625 -1.65625 C -0.113281 -1.914062 -0.128906 -2.15625 -0.109375 -2.375 C -0.0859375 -2.59375 -0.0234375 -2.789062 0.078125 -2.96875 C 0.191406 -3.15625 0.332031 -3.3125 0.5 -3.4375 C 0.664062 -3.5625 0.867188 -3.648438 1.109375 -3.703125 C 1.347656 -3.753906 1.566406 -3.765625 1.765625 -3.734375 C 1.960938 -3.703125 2.140625 -3.632812 2.296875 -3.53125 C 2.453125 -3.425781 2.585938 -3.273438 2.703125 -3.078125 C 2.828125 -2.890625 2.921875 -2.660156 2.984375 -2.390625 Z M 2.40625 -2.21875 C 2.363281 -2.425781 2.300781 -2.597656 2.21875 -2.734375 C 2.132812 -2.867188 2.039062 -2.976562 1.9375 -3.0625 C 1.832031 -3.15625 1.71875 -3.210938 1.59375 -3.234375 C 1.46875 -3.265625 1.332031 -3.265625 1.1875 -3.234375 C 1.03125 -3.191406 0.894531 -3.125 0.78125 -3.03125 C 0.675781 -2.9375 0.59375 -2.820312 0.53125 -2.6875 C 0.476562 -2.5625 0.453125 -2.421875 0.453125 -2.265625 C 0.460938 -2.117188 0.484375 -1.960938 0.515625 -1.796875 C 0.554688 -1.597656 0.613281 -1.429688 0.6875 -1.296875 C 0.769531 -1.160156 0.863281 -1.050781 0.96875 -0.96875 C 1.070312 -0.882812 1.1875 -0.828125 1.3125 -0.796875 C 1.4375 -0.773438 1.570312 -0.78125 1.71875 -0.8125 C 1.894531 -0.851562 2.03125 -0.921875 2.125 -1.015625 C 2.226562 -1.109375 2.304688 -1.21875 2.359375 -1.34375 C 2.421875 -1.476562 2.453125 -1.617188 2.453125 -1.765625 C 2.453125 -1.910156 2.4375 -2.0625 2.40625 -2.21875 Z M 2.40625 -2.21875 "/></g></g><g transform="translate(40.472192, 28.185073)"><g/></g><g transform="translate(44.099014, 27.378225)"><g><path d="M 2.59375 -0.578125 L 2.484375 -1.015625 C 2.347656 -0.796875 2.195312 -0.625 2.03125 -0.5 C 1.863281 -0.382812 1.6875 -0.304688 1.5 -0.265625 C 1.300781 -0.222656 1.132812 -0.210938 1 -0.234375 C 0.863281 -0.253906 0.738281 -0.296875 0.625 -0.359375 C 0.519531 -0.421875 0.429688 -0.503906 0.359375 -0.609375 C 0.296875 -0.710938 0.253906 -0.832031 0.234375 -0.96875 C 0.160156 -1.289062 0.222656 -1.570312 0.421875 -1.8125 C 0.628906 -2.050781 0.96875 -2.21875 1.4375 -2.3125 L 2.109375 -2.46875 L 2.046875 -2.75 C 2.003906 -2.9375 1.910156 -3.078125 1.765625 -3.171875 C 1.617188 -3.265625 1.414062 -3.28125 1.15625 -3.21875 C 0.976562 -3.175781 0.800781 -3.113281 0.625 -3.03125 C 0.457031 -2.957031 0.289062 -2.859375 0.125 -2.734375 L 0.015625 -3.25 C 0.078125 -3.289062 0.144531 -3.332031 0.21875 -3.375 C 0.300781 -3.414062 0.390625 -3.457031 0.484375 -3.5 C 0.585938 -3.539062 0.6875 -3.578125 0.78125 -3.609375 C 0.882812 -3.648438 0.988281 -3.679688 1.09375 -3.703125 C 1.300781 -3.742188 1.484375 -3.757812 1.640625 -3.75 C 1.804688 -3.75 1.953125 -3.710938 2.078125 -3.640625 C 2.210938 -3.578125 2.320312 -3.484375 2.40625 -3.359375 C 2.488281 -3.242188 2.550781 -3.097656 2.59375 -2.921875 L 3.09375 -0.6875 Z M 2.203125 -2.046875 L 1.484375 -1.890625 C 1.347656 -1.859375 1.234375 -1.816406 1.140625 -1.765625 C 1.046875 -1.710938 0.96875 -1.648438 0.90625 -1.578125 C 0.851562 -1.515625 0.816406 -1.441406 0.796875 -1.359375 C 0.785156 -1.285156 0.789062 -1.207031 0.8125 -1.125 C 0.832031 -1.0625 0.859375 -1 0.890625 -0.9375 C 0.921875 -0.882812 0.960938 -0.835938 1.015625 -0.796875 C 1.066406 -0.765625 1.128906 -0.742188 1.203125 -0.734375 C 1.285156 -0.722656 1.378906 -0.726562 1.484375 -0.75 C 1.597656 -0.78125 1.726562 -0.851562 1.875 -0.96875 C 2.03125 -1.082031 2.179688 -1.25 2.328125 -1.46875 Z M 2.203125 -2.046875 "/></g></g><g transform="translate(47.725836, 26.571377)"><g/></g><g transform="translate(51.352658, 25.764528)"><g><path d="M 2.828125 -0.625 L 2.3125 -2.9375 C 2.289062 -3.039062 2.269531 -3.125 2.25 -3.1875 C 2.226562 -3.257812 2.203125 -3.3125 2.171875 -3.34375 C 2.148438 -3.375 2.125 -3.394531 2.09375 -3.40625 C 2.070312 -3.414062 2.039062 -3.414062 2 -3.40625 C 1.957031 -3.394531 1.921875 -3.375 1.890625 -3.34375 C 1.859375 -3.3125 1.820312 -3.257812 1.78125 -3.1875 C 1.75 -3.125 1.722656 -3.035156 1.703125 -2.921875 C 1.679688 -2.816406 1.648438 -2.691406 1.609375 -2.546875 L 2.078125 -0.46875 L 1.5625 -0.34375 L 1.0625 -2.59375 C 1.03125 -2.71875 1.003906 -2.816406 0.984375 -2.890625 C 0.960938 -2.960938 0.9375 -3.015625 0.90625 -3.046875 C 0.875 -3.085938 0.84375 -3.113281 0.8125 -3.125 C 0.789062 -3.132812 0.765625 -3.132812 0.734375 -3.125 C 0.691406 -3.113281 0.65625 -3.09375 0.625 -3.0625 C 0.59375 -3.039062 0.5625 -2.992188 0.53125 -2.921875 C 0.5 -2.859375 0.46875 -2.769531 0.4375 -2.65625 C 0.414062 -2.550781 0.382812 -2.421875 0.34375 -2.265625 L 0.8125 -0.1875 L 0.296875 -0.0625 L -0.421875 -3.296875 L 0 -3.390625 L 0.171875 -2.796875 C 0.191406 -2.929688 0.21875 -3.046875 0.25 -3.140625 C 0.28125 -3.234375 0.316406 -3.3125 0.359375 -3.375 C 0.410156 -3.445312 0.460938 -3.5 0.515625 -3.53125 C 0.578125 -3.570312 0.648438 -3.601562 0.734375 -3.625 C 0.898438 -3.664062 1.039062 -3.632812 1.15625 -3.53125 C 1.28125 -3.4375 1.367188 -3.269531 1.421875 -3.03125 C 1.453125 -3.164062 1.476562 -3.273438 1.5 -3.359375 C 1.53125 -3.453125 1.566406 -3.535156 1.609375 -3.609375 C 1.648438 -3.691406 1.703125 -3.753906 1.765625 -3.796875 C 1.828125 -3.847656 1.90625 -3.882812 2 -3.90625 C 2.40625 -4 2.675781 -3.734375 2.8125 -3.109375 L 3.34375 -0.75 Z M 2.828125 -0.625 "/></g></g><g transform="translate(54.979481, 24.95768)"><g><path d="M 0.984375 -3.140625 L 0.03125 -2.921875 L -0.0625 -3.375 L 1.46875 -3.71875 L 2.078125 -0.953125 L 3.046875 -1.171875 L 3.15625 -0.703125 L 0.546875 -0.125 L 0.4375 -0.59375 L 1.5 -0.828125 Z M 0.796875 -5 C 0.859375 -5.007812 0.921875 -5.007812 0.984375 -5 C 1.046875 -5 1.097656 -4.976562 1.140625 -4.9375 C 1.191406 -4.90625 1.234375 -4.863281 1.265625 -4.8125 C 1.296875 -4.757812 1.316406 -4.707031 1.328125 -4.65625 C 1.335938 -4.59375 1.335938 -4.53125 1.328125 -4.46875 C 1.328125 -4.414062 1.3125 -4.363281 1.28125 -4.3125 C 1.25 -4.269531 1.207031 -4.226562 1.15625 -4.1875 C 1.101562 -4.144531 1.046875 -4.117188 0.984375 -4.109375 C 0.921875 -4.097656 0.859375 -4.097656 0.796875 -4.109375 C 0.742188 -4.117188 0.691406 -4.140625 0.640625 -4.171875 C 0.597656 -4.210938 0.554688 -4.253906 0.515625 -4.296875 C 0.484375 -4.347656 0.460938 -4.40625 0.453125 -4.46875 C 0.441406 -4.519531 0.441406 -4.578125 0.453125 -4.640625 C 0.460938 -4.703125 0.484375 -4.753906 0.515625 -4.796875 C 0.546875 -4.847656 0.582031 -4.890625 0.625 -4.921875 C 0.675781 -4.960938 0.734375 -4.988281 0.796875 -5 Z M 0.796875 -5 "/></g></g><g transform="translate(58.606303, 24.150832)"><g/></g><g transform="translate(62.233125, 23.343984)"><g><path d="M 2 -3.84375 L 2.703125 -0.671875 C 2.753906 -0.441406 2.765625 -0.226562 2.734375 -0.03125 C 2.710938 0.15625 2.65625 0.320312 2.5625 0.46875 C 2.46875 0.613281 2.335938 0.738281 2.171875 0.84375 C 2.003906 0.945312 1.8125 1.023438 1.59375 1.078125 C 1.4375 1.109375 1.28125 1.125 1.125 1.125 C 0.96875 1.125 0.820312 1.113281 0.6875 1.09375 L 0.5625 0.5625 C 0.632812 0.582031 0.710938 0.597656 0.796875 0.609375 C 0.878906 0.617188 0.960938 0.625 1.046875 0.625 C 1.128906 0.632812 1.210938 0.632812 1.296875 0.625 C 1.390625 0.613281 1.476562 0.601562 1.5625 0.59375 C 1.800781 0.53125 1.972656 0.40625 2.078125 0.21875 C 2.179688 0.03125 2.195312 -0.210938 2.125 -0.515625 L 1.515625 -3.25 L -0.078125 -2.90625 L -0.171875 -3.359375 Z M 1.34375 -5.125 C 1.414062 -5.132812 1.476562 -5.132812 1.53125 -5.125 C 1.59375 -5.113281 1.644531 -5.09375 1.6875 -5.0625 C 1.738281 -5.03125 1.78125 -4.988281 1.8125 -4.9375 C 1.851562 -4.882812 1.878906 -4.832031 1.890625 -4.78125 C 1.898438 -4.71875 1.898438 -4.65625 1.890625 -4.59375 C 1.878906 -4.539062 1.859375 -4.488281 1.828125 -4.4375 C 1.796875 -4.382812 1.753906 -4.335938 1.703125 -4.296875 C 1.660156 -4.265625 1.601562 -4.242188 1.53125 -4.234375 C 1.46875 -4.210938 1.410156 -4.207031 1.359375 -4.21875 C 1.304688 -4.238281 1.253906 -4.265625 1.203125 -4.296875 C 1.148438 -4.328125 1.101562 -4.363281 1.0625 -4.40625 C 1.03125 -4.457031 1.007812 -4.515625 1 -4.578125 C 0.988281 -4.628906 0.988281 -4.6875 1 -4.75 C 1.007812 -4.8125 1.03125 -4.867188 1.0625 -4.921875 C 1.101562 -4.972656 1.144531 -5.015625 1.1875 -5.046875 C 1.226562 -5.078125 1.28125 -5.101562 1.34375 -5.125 Z M 1.34375 -5.125 "/></g></g><g transform="translate(65.859948, 22.537135)"><g><path d="M 3.109375 -0.6875 L 2.609375 -0.578125 L 2.484375 -1.09375 C 2.410156 -0.957031 2.335938 -0.84375 2.265625 -0.75 C 2.203125 -0.664062 2.128906 -0.59375 2.046875 -0.53125 C 1.972656 -0.46875 1.894531 -0.414062 1.8125 -0.375 C 1.726562 -0.332031 1.640625 -0.300781 1.546875 -0.28125 C 1.203125 -0.207031 0.921875 -0.25 0.703125 -0.40625 C 0.492188 -0.5625 0.347656 -0.835938 0.265625 -1.234375 L -0.203125 -3.34375 L 0.359375 -3.46875 L 0.8125 -1.40625 C 0.925781 -0.90625 1.164062 -0.695312 1.53125 -0.78125 C 1.601562 -0.800781 1.671875 -0.828125 1.734375 -0.859375 C 1.796875 -0.898438 1.859375 -0.953125 1.921875 -1.015625 C 1.984375 -1.085938 2.046875 -1.175781 2.109375 -1.28125 C 2.171875 -1.382812 2.242188 -1.503906 2.328125 -1.640625 L 1.84375 -3.796875 L 2.390625 -3.921875 Z M 3.109375 -0.6875 "/></g></g><g transform="translate(69.48677, 21.730287)"><g><path d="M 2.234375 -3.421875 C 2.304688 -3.359375 2.367188 -3.273438 2.421875 -3.171875 C 2.472656 -3.078125 2.515625 -2.976562 2.546875 -2.875 C 2.578125 -2.695312 2.578125 -2.535156 2.546875 -2.390625 C 2.523438 -2.242188 2.46875 -2.109375 2.375 -1.984375 C 2.28125 -1.859375 2.160156 -1.75 2.015625 -1.65625 C 1.878906 -1.5625 1.71875 -1.492188 1.53125 -1.453125 C 1.40625 -1.421875 1.273438 -1.40625 1.140625 -1.40625 C 1.015625 -1.40625 0.914062 -1.425781 0.84375 -1.46875 C 0.8125 -1.394531 0.785156 -1.328125 0.765625 -1.265625 C 0.742188 -1.203125 0.742188 -1.144531 0.765625 -1.09375 C 0.773438 -1.007812 0.828125 -0.945312 0.921875 -0.90625 C 1.023438 -0.863281 1.140625 -0.859375 1.265625 -0.890625 L 2.109375 -1.046875 C 2.273438 -1.066406 2.429688 -1.070312 2.578125 -1.0625 C 2.722656 -1.0625 2.851562 -1.035156 2.96875 -0.984375 C 3.082031 -0.941406 3.175781 -0.878906 3.25 -0.796875 C 3.332031 -0.710938 3.390625 -0.597656 3.421875 -0.453125 C 3.453125 -0.316406 3.453125 -0.175781 3.421875 -0.03125 C 3.390625 0.113281 3.316406 0.242188 3.203125 0.359375 C 3.097656 0.484375 2.953125 0.597656 2.765625 0.703125 C 2.578125 0.816406 2.34375 0.90625 2.0625 0.96875 C 1.800781 1.019531 1.578125 1.046875 1.390625 1.046875 C 1.203125 1.046875 1.035156 1.019531 0.890625 0.96875 C 0.742188 0.914062 0.632812 0.847656 0.5625 0.765625 C 0.5 0.679688 0.453125 0.578125 0.421875 0.453125 C 0.390625 0.296875 0.394531 0.148438 0.4375 0.015625 C 0.476562 -0.117188 0.566406 -0.265625 0.703125 -0.421875 C 0.640625 -0.429688 0.582031 -0.445312 0.53125 -0.46875 C 0.476562 -0.5 0.429688 -0.535156 0.390625 -0.578125 C 0.359375 -0.617188 0.328125 -0.660156 0.296875 -0.703125 C 0.273438 -0.753906 0.257812 -0.804688 0.25 -0.859375 C 0.21875 -0.992188 0.222656 -1.125 0.265625 -1.25 C 0.304688 -1.382812 0.363281 -1.519531 0.4375 -1.65625 C 0.382812 -1.6875 0.335938 -1.722656 0.296875 -1.765625 C 0.253906 -1.804688 0.210938 -1.851562 0.171875 -1.90625 C 0.140625 -1.957031 0.109375 -2.007812 0.078125 -2.0625 C 0.0546875 -2.125 0.0351562 -2.195312 0.015625 -2.28125 C -0.0234375 -2.445312 -0.03125 -2.609375 0 -2.765625 C 0.0390625 -2.921875 0.101562 -3.054688 0.1875 -3.171875 C 0.269531 -3.296875 0.382812 -3.398438 0.53125 -3.484375 C 0.675781 -3.578125 0.84375 -3.644531 1.03125 -3.6875 C 1.113281 -3.707031 1.191406 -3.71875 1.265625 -3.71875 C 1.347656 -3.726562 1.421875 -3.726562 1.484375 -3.71875 L 2.65625 -3.984375 L 2.75 -3.53125 Z M 1.015625 0.265625 C 1.046875 0.421875 1.144531 0.515625 1.3125 0.546875 C 1.488281 0.578125 1.71875 0.5625 2 0.5 C 2.1875 0.457031 2.335938 0.40625 2.453125 0.34375 C 2.566406 0.289062 2.648438 0.226562 2.703125 0.15625 C 2.765625 0.09375 2.804688 0.0234375 2.828125 -0.046875 C 2.847656 -0.128906 2.851562 -0.207031 2.84375 -0.28125 C 2.8125 -0.394531 2.726562 -0.472656 2.59375 -0.515625 C 2.46875 -0.566406 2.300781 -0.570312 2.09375 -0.53125 L 1.234375 -0.375 C 1.171875 -0.300781 1.117188 -0.234375 1.078125 -0.171875 C 1.046875 -0.117188 1.023438 -0.0664062 1.015625 -0.015625 C 1.003906 0.0351562 1 0.0820312 1 0.125 C 1 0.164062 1.003906 0.210938 1.015625 0.265625 Z M 0.578125 -2.421875 C 0.597656 -2.316406 0.632812 -2.222656 0.6875 -2.140625 C 0.75 -2.066406 0.816406 -2.003906 0.890625 -1.953125 C 0.960938 -1.910156 1.046875 -1.878906 1.140625 -1.859375 C 1.234375 -1.847656 1.332031 -1.851562 1.4375 -1.875 C 1.550781 -1.90625 1.644531 -1.945312 1.71875 -2 C 1.800781 -2.050781 1.863281 -2.117188 1.90625 -2.203125 C 1.945312 -2.285156 1.972656 -2.367188 1.984375 -2.453125 C 2.003906 -2.546875 2.003906 -2.640625 1.984375 -2.734375 C 1.960938 -2.828125 1.921875 -2.914062 1.859375 -3 C 1.804688 -3.082031 1.742188 -3.144531 1.671875 -3.1875 C 1.597656 -3.238281 1.515625 -3.269531 1.421875 -3.28125 C 1.328125 -3.289062 1.226562 -3.285156 1.125 -3.265625 C 1.007812 -3.242188 0.914062 -3.203125 0.84375 -3.140625 C 0.769531 -3.085938 0.707031 -3.019531 0.65625 -2.9375 C 0.613281 -2.863281 0.582031 -2.78125 0.5625 -2.6875 C 0.550781 -2.59375 0.554688 -2.503906 0.578125 -2.421875 Z M 0.578125 -2.421875 "/></g></g><g transform="translate(73.113592, 20.923439)"><g><path d="M 3.109375 -0.6875 L 2.609375 -0.578125 L 2.484375 -1.09375 C 2.410156 -0.957031 2.335938 -0.84375 2.265625 -0.75 C 2.203125 -0.664062 2.128906 -0.59375 2.046875 -0.53125 C 1.972656 -0.46875 1.894531 -0.414062 1.8125 -0.375 C 1.726562 -0.332031 1.640625 -0.300781 1.546875 -0.28125 C 1.203125 -0.207031 0.921875 -0.25 0.703125 -0.40625 C 0.492188 -0.5625 0.347656 -0.835938 0.265625 -1.234375 L -0.203125 -3.34375 L 0.359375 -3.46875 L 0.8125 -1.40625 C 0.925781 -0.90625 1.164062 -0.695312 1.53125 -0.78125 C 1.601562 -0.800781 1.671875 -0.828125 1.734375 -0.859375 C 1.796875 -0.898438 1.859375 -0.953125 1.921875 -1.015625 C 1.984375 -1.085938 2.046875 -1.175781 2.109375 -1.28125 C 2.171875 -1.382812 2.242188 -1.503906 2.328125 -1.640625 L 1.84375 -3.796875 L 2.390625 -3.921875 Z M 3.109375 -0.6875 "/></g></g><g transform="translate(76.740415, 20.116591)"><g><path d="M 2.859375 -2.5 C 2.867188 -2.425781 2.878906 -2.363281 2.890625 -2.3125 C 2.910156 -2.257812 2.921875 -2.207031 2.921875 -2.15625 L 0.640625 -1.65625 C 0.710938 -1.332031 0.863281 -1.097656 1.09375 -0.953125 C 1.320312 -0.816406 1.609375 -0.785156 1.953125 -0.859375 C 2.046875 -0.878906 2.140625 -0.898438 2.234375 -0.921875 C 2.328125 -0.953125 2.414062 -0.984375 2.5 -1.015625 C 2.582031 -1.054688 2.660156 -1.09375 2.734375 -1.125 C 2.816406 -1.15625 2.890625 -1.191406 2.953125 -1.234375 L 3.0625 -0.78125 C 2.925781 -0.695312 2.757812 -0.617188 2.5625 -0.546875 C 2.375 -0.472656 2.179688 -0.414062 1.984375 -0.375 C 1.703125 -0.3125 1.453125 -0.296875 1.234375 -0.328125 C 1.023438 -0.359375 0.835938 -0.429688 0.671875 -0.546875 C 0.515625 -0.660156 0.378906 -0.8125 0.265625 -1 C 0.160156 -1.195312 0.078125 -1.425781 0.015625 -1.6875 C -0.0351562 -1.914062 -0.046875 -2.140625 -0.015625 -2.359375 C 0.00390625 -2.578125 0.0546875 -2.773438 0.140625 -2.953125 C 0.234375 -3.128906 0.359375 -3.285156 0.515625 -3.421875 C 0.679688 -3.554688 0.878906 -3.648438 1.109375 -3.703125 C 1.335938 -3.753906 1.546875 -3.765625 1.734375 -3.734375 C 1.929688 -3.703125 2.101562 -3.632812 2.25 -3.53125 C 2.394531 -3.4375 2.519531 -3.300781 2.625 -3.125 C 2.726562 -2.945312 2.804688 -2.738281 2.859375 -2.5 Z M 2.25 -2.46875 C 2.21875 -2.613281 2.171875 -2.738281 2.109375 -2.84375 C 2.054688 -2.957031 1.984375 -3.050781 1.890625 -3.125 C 1.804688 -3.195312 1.703125 -3.242188 1.578125 -3.265625 C 1.453125 -3.296875 1.316406 -3.296875 1.171875 -3.265625 C 1.046875 -3.234375 0.941406 -3.179688 0.859375 -3.109375 C 0.785156 -3.035156 0.71875 -2.945312 0.65625 -2.84375 C 0.59375 -2.738281 0.550781 -2.625 0.53125 -2.5 C 0.507812 -2.375 0.507812 -2.238281 0.53125 -2.09375 Z M 2.25 -2.46875 "/></g></g><g transform="translate(80.367237, 19.309742)"><g><path d="M 3.109375 -0.75 C 2.984375 -0.6875 2.859375 -0.628906 2.734375 -0.578125 C 2.609375 -0.535156 2.472656 -0.5 2.328125 -0.46875 C 1.921875 -0.375 1.597656 -0.394531 1.359375 -0.53125 C 1.117188 -0.675781 0.957031 -0.941406 0.875 -1.328125 L 0.5 -3.015625 L -0.40625 -2.8125 L -0.515625 -3.28125 L 0.390625 -3.484375 L 0.1875 -4.390625 L 0.71875 -4.640625 L 0.953125 -3.609375 L 2.40625 -3.9375 L 2.515625 -3.46875 L 1.0625 -3.140625 L 1.421875 -1.5 C 1.472656 -1.269531 1.570312 -1.109375 1.71875 -1.015625 C 1.875 -0.921875 2.070312 -0.898438 2.3125 -0.953125 C 2.414062 -0.972656 2.523438 -1.003906 2.640625 -1.046875 C 2.753906 -1.097656 2.875 -1.160156 3 -1.234375 Z M 3.109375 -0.75 "/></g></g><g transform="translate(83.994059, 18.502894)"><g><path d="M 2.859375 -2.5 C 2.867188 -2.425781 2.878906 -2.363281 2.890625 -2.3125 C 2.910156 -2.257812 2.921875 -2.207031 2.921875 -2.15625 L 0.640625 -1.65625 C 0.710938 -1.332031 0.863281 -1.097656 1.09375 -0.953125 C 1.320312 -0.816406 1.609375 -0.785156 1.953125 -0.859375 C 2.046875 -0.878906 2.140625 -0.898438 2.234375 -0.921875 C 2.328125 -0.953125 2.414062 -0.984375 2.5 -1.015625 C 2.582031 -1.054688 2.660156 -1.09375 2.734375 -1.125 C 2.816406 -1.15625 2.890625 -1.191406 2.953125 -1.234375 L 3.0625 -0.78125 C 2.925781 -0.695312 2.757812 -0.617188 2.5625 -0.546875 C 2.375 -0.472656 2.179688 -0.414062 1.984375 -0.375 C 1.703125 -0.3125 1.453125 -0.296875 1.234375 -0.328125 C 1.023438 -0.359375 0.835938 -0.429688 0.671875 -0.546875 C 0.515625 -0.660156 0.378906 -0.8125 0.265625 -1 C 0.160156 -1.195312 0.078125 -1.425781 0.015625 -1.6875 C -0.0351562 -1.914062 -0.046875 -2.140625 -0.015625 -2.359375 C 0.00390625 -2.578125 0.0546875 -2.773438 0.140625 -2.953125 C 0.234375 -3.128906 0.359375 -3.285156 0.515625 -3.421875 C 0.679688 -3.554688 0.878906 -3.648438 1.109375 -3.703125 C 1.335938 -3.753906 1.546875 -3.765625 1.734375 -3.734375 C 1.929688 -3.703125 2.101562 -3.632812 2.25 -3.53125 C 2.394531 -3.4375 2.519531 -3.300781 2.625 -3.125 C 2.726562 -2.945312 2.804688 -2.738281 2.859375 -2.5 Z M 2.25 -2.46875 C 2.21875 -2.613281 2.171875 -2.738281 2.109375 -2.84375 C 2.054688 -2.957031 1.984375 -3.050781 1.890625 -3.125 C 1.804688 -3.195312 1.703125 -3.242188 1.578125 -3.265625 C 1.453125 -3.296875 1.316406 -3.296875 1.171875 -3.265625 C 1.046875 -3.234375 0.941406 -3.179688 0.859375 -3.109375 C 0.785156 -3.035156 0.71875 -2.945312 0.65625 -2.84375 C 0.59375 -2.738281 0.550781 -2.625 0.53125 -2.5 C 0.507812 -2.375 0.507812 -2.238281 0.53125 -2.09375 Z M 2.25 -2.46875 "/></g></g><g transform="translate(87.620881, 17.696046)"><g><path d="M 2.875 -1.578125 C 2.90625 -1.460938 2.910156 -1.351562 2.890625 -1.25 C 2.867188 -1.144531 2.832031 -1.050781 2.78125 -0.96875 C 2.738281 -0.882812 2.675781 -0.804688 2.59375 -0.734375 C 2.519531 -0.671875 2.4375 -0.609375 2.34375 -0.546875 C 2.25 -0.492188 2.148438 -0.445312 2.046875 -0.40625 C 1.941406 -0.375 1.84375 -0.347656 1.75 -0.328125 C 1.53125 -0.273438 1.328125 -0.238281 1.140625 -0.21875 C 0.953125 -0.195312 0.757812 -0.1875 0.5625 -0.1875 L 0.453125 -0.703125 C 0.660156 -0.691406 0.859375 -0.691406 1.046875 -0.703125 C 1.242188 -0.710938 1.429688 -0.738281 1.609375 -0.78125 C 1.878906 -0.84375 2.070312 -0.925781 2.1875 -1.03125 C 2.300781 -1.144531 2.34375 -1.269531 2.3125 -1.40625 C 2.300781 -1.46875 2.28125 -1.515625 2.25 -1.546875 C 2.21875 -1.585938 2.164062 -1.617188 2.09375 -1.640625 C 2.03125 -1.671875 1.9375 -1.695312 1.8125 -1.71875 C 1.695312 -1.75 1.535156 -1.769531 1.328125 -1.78125 C 1.171875 -1.789062 1.023438 -1.804688 0.890625 -1.828125 C 0.753906 -1.859375 0.632812 -1.898438 0.53125 -1.953125 C 0.425781 -2.003906 0.332031 -2.078125 0.25 -2.171875 C 0.175781 -2.265625 0.125 -2.378906 0.09375 -2.515625 C 0.0703125 -2.609375 0.0703125 -2.710938 0.09375 -2.828125 C 0.113281 -2.953125 0.160156 -3.066406 0.234375 -3.171875 C 0.316406 -3.285156 0.4375 -3.390625 0.59375 -3.484375 C 0.757812 -3.585938 0.972656 -3.671875 1.234375 -3.734375 C 1.359375 -3.765625 1.5 -3.785156 1.65625 -3.796875 C 1.8125 -3.816406 1.976562 -3.832031 2.15625 -3.84375 L 2.28125 -3.34375 C 2.09375 -3.34375 1.914062 -3.332031 1.75 -3.3125 C 1.59375 -3.300781 1.453125 -3.285156 1.328125 -3.265625 C 1.179688 -3.234375 1.066406 -3.195312 0.984375 -3.15625 C 0.898438 -3.113281 0.828125 -3.066406 0.765625 -3.015625 C 0.710938 -2.960938 0.675781 -2.90625 0.65625 -2.84375 C 0.644531 -2.789062 0.648438 -2.734375 0.671875 -2.671875 C 0.679688 -2.609375 0.703125 -2.554688 0.734375 -2.515625 C 0.765625 -2.484375 0.816406 -2.453125 0.890625 -2.421875 C 0.960938 -2.390625 1.054688 -2.363281 1.171875 -2.34375 C 1.296875 -2.320312 1.453125 -2.304688 1.640625 -2.296875 C 1.835938 -2.273438 2.007812 -2.25 2.15625 -2.21875 C 2.3125 -2.195312 2.4375 -2.15625 2.53125 -2.09375 C 2.625 -2.03125 2.695312 -1.957031 2.75 -1.875 C 2.8125 -1.789062 2.851562 -1.691406 2.875 -1.578125 Z M 2.875 -1.578125 "/></g></g><g transform="translate(91.247704, 16.889198)"><g><path d="M 1.546875 -1.40625 C 1.628906 -1.425781 1.707031 -1.429688 1.78125 -1.421875 C 1.851562 -1.410156 1.914062 -1.382812 1.96875 -1.34375 C 2.03125 -1.300781 2.082031 -1.25 2.125 -1.1875 C 2.164062 -1.125 2.191406 -1.054688 2.203125 -0.984375 C 2.222656 -0.910156 2.226562 -0.835938 2.21875 -0.765625 C 2.207031 -0.703125 2.179688 -0.640625 2.140625 -0.578125 C 2.109375 -0.523438 2.0625 -0.472656 2 -0.421875 C 1.945312 -0.378906 1.878906 -0.347656 1.796875 -0.328125 C 1.722656 -0.316406 1.648438 -0.316406 1.578125 -0.328125 C 1.515625 -0.347656 1.453125 -0.375 1.390625 -0.40625 C 1.335938 -0.445312 1.285156 -0.492188 1.234375 -0.546875 C 1.191406 -0.609375 1.160156 -0.675781 1.140625 -0.75 C 1.128906 -0.820312 1.128906 -0.894531 1.140625 -0.96875 C 1.160156 -1.039062 1.1875 -1.109375 1.21875 -1.171875 C 1.257812 -1.234375 1.304688 -1.285156 1.359375 -1.328125 C 1.410156 -1.367188 1.472656 -1.394531 1.546875 -1.40625 Z M 1.546875 -1.40625 "/></g></g></g><g mask="url(#19a656843d)"><g transform="matrix(1, 0, 0, 1, 32, 27)"><g clip-path="url(#c640edffc9)"><g clip-path="url(#c9cf1dbd24)"><g clip-path="url(#14872ca26e)"><g clip-path="url(#caa347b3c1)"><path fill="#535353" d="M 23.429688 50.460938 C 23.054688 49.894531 22.75 49.289062 22.523438 48.648438 C 22.296875 48.003906 22.152344 47.34375 22.089844 46.664062 C 22.027344 45.988281 22.050781 45.3125 22.15625 44.636719 C 22.265625 43.964844 22.453125 43.316406 22.722656 42.6875 C 23.136719 41.722656 21.601562 41.175781 21.191406 42.136719 C 20.519531 43.722656 20.292969 45.367188 20.511719 47.074219 C 19.105469 45.277344 17.867188 43.371094 16.796875 41.355469 C 15.253906 38.453125 14.09375 35.402344 13.320312 32.207031 C 12.546875 29.015625 12.179688 25.773438 12.222656 22.484375 C 12.28125 18.882812 12.824219 15.351562 13.84375 11.898438 C 14.867188 8.441406 16.332031 5.1875 18.238281 2.128906 C 18.796875 1.25 17.464844 0.300781 16.90625 1.191406 C 15.390625 3.601562 14.136719 6.144531 13.152344 8.816406 C 12.164062 11.492188 11.460938 14.238281 11.046875 17.054688 C 10.632812 19.875 10.511719 22.707031 10.6875 25.550781 C 10.863281 28.394531 11.332031 31.191406 12.089844 33.9375 C 13.523438 39.003906 15.832031 43.632812 19.023438 47.820312 C 17.414062 46.996094 15.753906 46.277344 14.050781 45.667969 C 13.0625 45.3125 12.507812 46.851562 13.496094 47.203125 C 16.628906 48.3125 19.578125 49.792969 22.335938 51.648438 C 23.140625 52.1875 23.9375 51.195312 23.429688 50.460938 Z M 23.429688 50.460938 " fill-opacity="1" fill-rule="nonzero"/></g></g></g></g></g></g><g mask="url(#97a79b744f)"><g transform="matrix(1, 0, 0, 1, 52, 12)"><g clip-path="url(#bac901a894)"><g clip-path="url(#96489f3c9e)"><g clip-path="url(#7db252cfcd)"><g clip-path="url(#fdce0ab588)"><path fill="#535353" d="M 42.757812 28.964844 C 41.566406 29.144531 40.398438 29.027344 39.261719 28.617188 C 38.125 28.207031 37.15625 27.546875 36.355469 26.644531 C 35.742188 25.957031 34.742188 26.96875 35.347656 27.648438 C 36.351562 28.765625 37.570312 29.554688 39 30.015625 C 37.058594 30.460938 35.09375 30.734375 33.105469 30.835938 C 30.238281 30.976562 27.398438 30.761719 24.585938 30.1875 C 21.773438 29.613281 19.074219 28.703125 16.492188 27.449219 C 13.667969 26.066406 11.078125 24.332031 8.726562 22.242188 C 6.375 20.152344 4.34375 17.789062 2.636719 15.144531 C 2.148438 14.382812 0.90625 15.082031 1.402344 15.851562 C 2.746094 17.945312 4.289062 19.875 6.035156 21.648438 C 7.78125 23.421875 9.691406 24.992188 11.765625 26.367188 C 13.839844 27.738281 16.035156 28.882812 18.347656 29.800781 C 20.660156 30.714844 23.042969 31.382812 25.496094 31.804688 C 30.03125 32.546875 34.542969 32.4375 39.039062 31.46875 C 37.789062 32.4375 36.605469 33.480469 35.496094 34.601562 C 34.847656 35.25 35.855469 36.257812 36.5 35.609375 C 38.539062 33.542969 40.800781 31.761719 43.289062 30.269531 C 44.019531 29.835938 43.527344 28.839844 42.757812 28.964844 Z M 42.757812 28.964844 " fill-opacity="1" fill-rule="nonzero"/></g></g></g></g></g></g></svg>